<svg width="12" height="12" viewBox="0 0 12 12" fill="none" xmlns="http://www.w3.org/2000/svg">
<g clip-path="url(#clip0_184_5)">
<path fill-rule="evenodd" clip-rule="evenodd" d="M4.773 10.125C4.773 10.2245 4.81251 10.3198 4.88283 10.3902C4.95316 10.4605 5.04854 10.5 5.148 10.5H10.125C10.4234 10.5 10.7095 10.3815 10.9205 10.1705C11.1315 9.95952 11.25 9.67337 11.25 9.375V1.875C11.25 1.57663 11.1315 1.29048 10.9205 1.0795C10.7095 0.868526 10.4234 0.75 10.125 0.75H2.625C2.32663 0.75 2.04048 0.868526 1.8295 1.0795C1.61853 1.29048 1.5 1.57663 1.5 1.875V6.852C1.5 6.95146 1.53951 7.04684 1.60984 7.11717C1.68016 7.18749 1.77554 7.227 1.875 7.227C1.97446 7.227 2.06984 7.18749 2.14016 7.11717C2.21049 7.04684 2.25 6.95146 2.25 6.852V1.875C2.25 1.77554 2.28951 1.68016 2.35984 1.60984C2.43016 1.53951 2.52554 1.5 2.625 1.5H10.125C10.2245 1.5 10.3198 1.53951 10.3902 1.60984C10.4605 1.68016 10.5 1.77554 10.5 1.875V9.375C10.5 9.47446 10.4605 9.56984 10.3902 9.64017C10.3198 9.71049 10.2245 9.75 10.125 9.75H5.148C5.04854 9.75 4.95316 9.78951 4.88283 9.85983C4.81251 9.93016 4.773 10.0255 4.773 10.125Z" fill="white"/>
<path fill-rule="evenodd" clip-rule="evenodd" d="M8.25047 4.125C8.25047 4.02554 8.21097 3.93016 8.14064 3.85984C8.07031 3.78951 7.97493 3.75 7.87547 3.75H4.12547C4.02602 3.75 3.93063 3.78951 3.86031 3.85984C3.78998 3.93016 3.75047 4.02554 3.75047 4.125C3.75047 4.22446 3.78998 4.31984 3.86031 4.39016C3.93063 4.46049 4.02602 4.5 4.12547 4.5H6.97022L0.859974 10.6095C0.789559 10.6799 0.75 10.7754 0.75 10.875C0.75 10.9746 0.789559 11.0701 0.859974 11.1405C0.930389 11.2109 1.02589 11.2505 1.12547 11.2505C1.22506 11.2505 1.32056 11.2109 1.39097 11.1405L7.50047 5.03025V7.875C7.50047 7.97446 7.53998 8.06984 7.61031 8.14017C7.68063 8.21049 7.77602 8.25 7.87547 8.25C7.97493 8.25 8.07031 8.21049 8.14064 8.14017C8.21097 8.06984 8.25047 7.97446 8.25047 7.875V4.125Z" fill="white"/>
</g>
<defs>
<clipPath id="clip0_184_5">
<rect width="12" height="12" fill="white"/>
</clipPath>
</defs>
</svg>
