<svg width="15" height="15" viewBox="0 0 15 15" fill="none" xmlns="http://www.w3.org/2000/svg">
<path d="M14.1003 10.1258L12.3866 8.4117C11.5573 7.58228 10.12 7.58228 9.29078 8.4117L9.12493 8.57758L6.16736 5.61932L6.33321 5.45343C7.19008 4.59637 7.19008 3.20018 6.33321 2.35693L4.61948 0.6428C3.76262 -0.214267 2.38057 -0.214267 1.5237 0.6428C-0.507901 2.67488 -0.507901 5.99256 1.5237 8.02463L6.73401 13.2362C7.75672 14.2591 9.08348 14.7568 10.4241 14.7568C11.7646 14.7568 13.0914 14.2453 14.1141 13.2362C14.971 12.3791 14.971 10.9829 14.1141 10.1397L14.1003 10.1258ZM13.3263 12.4482C12.5524 13.2223 11.5159 13.6509 10.4102 13.6509C9.3046 13.6509 8.28189 13.2223 7.50795 12.4482L2.29765 7.23668C1.52371 6.46256 1.09527 5.42579 1.09527 4.31989C1.09527 3.214 1.52371 2.17723 2.29765 1.4031C2.50496 1.19575 2.78136 1.08516 3.07159 1.08516C3.36182 1.08516 3.63823 1.19575 3.84553 1.4031L5.55927 3.11724C5.98771 3.54577 5.98771 4.23695 5.55927 4.66548L4.61948 5.60549L9.12493 10.112L10.0647 9.172C10.2582 8.97847 10.5346 8.86788 10.8387 8.86788C11.1427 8.86788 11.4191 8.97847 11.6126 9.172L13.3263 10.8861C13.5336 11.0935 13.6442 11.37 13.6442 11.6603C13.6442 11.9506 13.5336 12.227 13.3263 12.4344V12.4482Z" fill="black"/>
</svg>
