<svg width="59" height="59" viewBox="0 0 59 59" fill="none" xmlns="http://www.w3.org/2000/svg">
<rect x="0.986816" y="0.736694" width="58" height="58" rx="29" fill="#091938"/>
<path d="M29.9868 22.2367C28.5949 22.2383 27.2605 22.7919 26.2763 23.7761C25.292 24.7604 24.7384 26.0948 24.7368 27.4867C24.7368 31.5014 29.2638 36.0742 29.4566 36.2669L29.9868 36.7972L30.5171 36.2669C30.7098 36.0742 35.2368 31.5014 35.2368 27.4867C35.2352 26.0948 34.6816 24.7604 33.6974 23.7761C32.7132 22.7919 31.3787 22.2383 29.9868 22.2367V22.2367ZM29.9868 34.6364C28.8401 33.3554 26.2368 30.1514 26.2368 27.4867C26.2368 26.4921 26.6319 25.5383 27.3352 24.835C28.0384 24.1318 28.9923 23.7367 29.9868 23.7367C30.9814 23.7367 31.9352 24.1318 32.6385 24.835C33.3417 25.5383 33.7368 26.4921 33.7368 27.4867C33.7368 30.1462 31.1321 33.3539 29.9868 34.6364Z" fill="white"/>
<path d="M29.9868 25.2367C29.5418 25.2367 29.1068 25.3687 28.7368 25.6159C28.3668 25.8631 28.0784 26.2145 27.9081 26.6257C27.7378 27.0368 27.6932 27.4892 27.7801 27.9256C27.8669 28.3621 28.0812 28.763 28.3958 29.0777C28.7105 29.3924 29.1114 29.6066 29.5479 29.6935C29.9843 29.7803 30.4367 29.7357 30.8479 29.5654C31.259 29.3951 31.6104 29.1067 31.8576 28.7367C32.1049 28.3667 32.2368 27.9317 32.2368 27.4867C32.2368 26.89 31.9998 26.3177 31.5778 25.8957C31.1559 25.4737 30.5836 25.2367 29.9868 25.2367ZM29.9868 28.2367C29.8385 28.2367 29.6935 28.1927 29.5701 28.1103C29.4468 28.0279 29.3507 27.9108 29.2939 27.7737C29.2371 27.6367 29.2223 27.4859 29.2512 27.3404C29.2802 27.1949 29.3516 27.0613 29.4565 26.9564C29.5614 26.8515 29.695 26.78 29.8405 26.7511C29.986 26.7222 30.1368 26.737 30.2738 26.7938C30.4109 26.8506 30.528 26.9467 30.6104 27.07C30.6928 27.1934 30.7368 27.3384 30.7368 27.4867C30.7368 27.6856 30.6578 27.8764 30.5171 28.017C30.3765 28.1577 30.1857 28.2367 29.9868 28.2367Z" fill="white"/>
</svg>
