<svg width="40" height="52" viewBox="0 0 40 52" fill="none" xmlns="http://www.w3.org/2000/svg">
<path d="M11.9504 40.3785C12.4054 40.112 12.9026 39.852 13.4421 39.605C12.9864 40.2845 12.4983 40.9417 11.9796 41.5745C11.0696 42.6697 10.3611 43.2515 9.91588 43.4335C9.87891 43.4491 9.8409 43.4621 9.80213 43.4725C9.76969 43.4275 9.74141 43.3796 9.71763 43.3295C9.53563 42.972 9.54213 42.6275 9.84763 42.1595C10.1921 41.6232 10.8844 41.009 11.9504 40.3785ZM19.9291 35.0257C19.5424 35.107 19.1589 35.1882 18.7721 35.2792C19.345 34.1568 19.8868 33.0189 20.3971 31.8667C20.9109 32.8187 21.4638 33.749 22.0546 34.6552C21.3494 34.7592 20.6376 34.8827 19.9291 35.0257ZM28.1354 38.0775C27.6306 37.6703 27.1579 37.2248 26.7216 36.745C27.4626 36.7612 28.1321 36.8165 28.7106 36.9205C29.7409 37.1057 30.2251 37.3982 30.3941 37.5997C30.4474 37.656 30.4776 37.7302 30.4786 37.8077C30.4672 38.037 30.4003 38.26 30.2836 38.4577C30.2181 38.6161 30.1129 38.7548 29.9781 38.8607C29.911 38.9019 29.832 38.9191 29.7539 38.9095C29.4614 38.8997 28.9154 38.695 28.1354 38.0775ZM20.9041 22.653C20.7741 23.446 20.5531 24.356 20.2541 25.3472C20.144 24.9761 20.0475 24.601 19.9649 24.2227C19.7179 23.0755 19.6821 22.1752 19.8154 21.5512C19.9389 20.976 20.1729 20.7452 20.4524 20.6315C20.6023 20.5654 20.761 20.5216 20.9236 20.5015C20.9659 20.599 21.0146 20.8005 21.0276 21.145C21.0439 21.5415 21.0049 22.0452 20.9041 22.6562V22.653Z" fill="#D70000"/>
<path fill-rule="evenodd" clip-rule="evenodd" d="M7 0H24.2023C25.0641 0.000184072 25.8906 0.342715 26.5 0.95225L38.5477 13C39.1573 13.6094 39.4998 14.4359 39.5 15.2977V45.5C39.5 47.2239 38.8152 48.8772 37.5962 50.0962C36.3772 51.3152 34.7239 52 33 52H7C5.27609 52 3.62279 51.3152 2.40381 50.0962C1.18482 48.8772 0.5 47.2239 0.5 45.5V6.5C0.5 4.77609 1.18482 3.12279 2.40381 1.90381C3.62279 0.68482 5.27609 0 7 0V0ZM24.875 4.875V11.375C24.875 12.237 25.2174 13.0636 25.8269 13.6731C26.4364 14.2826 27.263 14.625 28.125 14.625H34.625L24.875 4.875ZM7.53625 44.421C7.82875 45.006 8.28375 45.5358 8.95975 45.7827C9.6325 46.0265 10.2987 45.9128 10.8448 45.6852C11.8783 45.2627 12.9085 44.2682 13.8543 43.1307C14.9365 41.8275 16.074 40.118 17.1725 38.2232C19.2932 37.5947 21.4649 37.1532 23.6628 36.9037C24.6377 38.1485 25.6452 39.221 26.6202 39.9912C27.5302 40.7062 28.58 41.301 29.6557 41.3465C30.2417 41.3755 30.8219 41.2185 31.3132 40.898C31.817 40.5697 32.1908 40.0952 32.4638 39.546C32.7562 38.9578 32.935 38.3435 32.9122 37.7162C32.8917 37.0978 32.6626 36.5045 32.2622 36.0327C31.5278 35.1553 30.3252 34.7327 29.1423 34.5215C27.7072 34.2992 26.2512 34.2447 24.8035 34.359C23.581 32.6308 22.5151 30.7971 21.6185 28.8795C22.431 26.7345 23.0387 24.7065 23.3085 23.049C23.4255 22.3405 23.4872 21.6645 23.4645 21.0535C23.4605 20.447 23.3194 19.8493 23.0518 19.305C22.8976 19.0046 22.6785 18.7423 22.4103 18.5372C22.1422 18.332 21.8317 18.1891 21.5015 18.1187C20.845 17.979 20.169 18.1187 19.5483 18.369C18.323 18.8565 17.6763 19.8965 17.4325 21.0437C17.1952 22.1488 17.3025 23.4358 17.582 24.7358C17.868 26.0553 18.3555 27.4918 18.9795 28.9445C17.9814 31.4268 16.8286 33.8442 15.528 36.1823C13.8531 36.7092 12.2386 37.4119 10.7115 38.2785C9.509 38.9935 8.43975 39.8385 7.79625 40.8363C7.11375 41.8957 6.9025 43.1567 7.53625 44.421Z" fill="#D70000"/>
</svg>
