<svg width="29" height="28" viewBox="0 0 29 28" fill="none" xmlns="http://www.w3.org/2000/svg">
<path fill-rule="evenodd" clip-rule="evenodd" d="M11.4595 23.3978C11.4595 23.6276 11.5543 23.848 11.7232 24.0105C11.892 24.1731 12.121 24.2644 12.3598 24.2644H24.3091C25.0254 24.2644 25.7125 23.9905 26.219 23.5029C26.7255 23.0154 27.0101 22.3541 27.0101 21.6646V4.33312C27.0101 3.64363 26.7255 2.98238 26.219 2.49484C25.7125 2.0073 25.0254 1.7334 24.3091 1.7334H6.30233C5.58598 1.7334 4.89897 2.0073 4.39243 2.49484C3.88589 2.98238 3.60132 3.64363 3.60132 4.33312V15.8343C3.60132 16.0641 3.69618 16.2846 3.86502 16.4471C4.03387 16.6096 4.26287 16.7009 4.50166 16.7009C4.74044 16.7009 4.96944 16.6096 5.13829 16.4471C5.30714 16.2846 5.40199 16.0641 5.40199 15.8343V4.33312C5.40199 4.10329 5.49685 3.88288 5.6657 3.72036C5.83454 3.55785 6.06355 3.46655 6.30233 3.46655H24.3091C24.5479 3.46655 24.7769 3.55785 24.9457 3.72036C25.1146 3.88288 25.2094 4.10329 25.2094 4.33312V21.6646C25.2094 21.8945 25.1146 22.1149 24.9457 22.2774C24.7769 22.4399 24.5479 22.5312 24.3091 22.5312H12.3598C12.121 22.5312 11.892 22.6225 11.7232 22.785C11.5543 22.9475 11.4595 23.1679 11.4595 23.3978Z" fill="#F27535"/>
<path fill-rule="evenodd" clip-rule="evenodd" d="M19.8075 9.53235C19.8075 9.30252 19.7126 9.0821 19.5438 8.91959C19.3749 8.75707 19.1459 8.66577 18.9071 8.66577H9.90374C9.66495 8.66577 9.43595 8.75707 9.2671 8.91959C9.09826 9.0821 9.0034 9.30252 9.0034 9.53235C9.0034 9.76218 9.09826 9.98259 9.2671 10.1451C9.43595 10.3076 9.66495 10.3989 9.90374 10.3989H16.7337L2.0636 24.5172C1.89454 24.6799 1.79956 24.9006 1.79956 25.1307C1.79956 25.3608 1.89454 25.5815 2.0636 25.7442C2.23266 25.907 2.46195 25.9984 2.70104 25.9984C2.94012 25.9984 3.16942 25.907 3.33847 25.7442L18.0068 11.6243V18.1981C18.0068 18.4279 18.1016 18.6483 18.2705 18.8109C18.4393 18.9734 18.6683 19.0647 18.9071 19.0647C19.1459 19.0647 19.3749 18.9734 19.5438 18.8109C19.7126 18.6483 19.8075 18.4279 19.8075 18.1981V9.53235Z" fill="#F27535"/>
</svg>
