<svg width="64" height="65" viewBox="0 0 64 65" fill="none" xmlns="http://www.w3.org/2000/svg">
<rect y="0.5" width="64" height="64" rx="32" fill="#DABE96"/>
<path d="M42.1909 35.989L42.1529 35.162L35.6699 34.236L34.3549 36.81C32.9665 36.0283 31.6973 35.0517 30.5859 33.91C29.4315 32.8004 28.4478 31.5259 27.6669 30.128L30.4669 28.728L27.6669 22.208L26.9069 22.318C25.6198 22.4953 24.4273 23.093 23.5149 24.018C20.3419 27.187 21.5849 33.4 26.3429 38.157C29.3249 41.138 32.8759 42.739 35.8939 42.738C36.7375 42.7674 37.5784 42.6274 38.3669 42.3263C39.1554 42.0252 39.8756 41.5691 40.4849 40.985C41.1073 40.3208 41.5813 39.5319 41.8754 38.6705C42.1695 37.8092 42.2771 36.8951 42.1909 35.989ZM39.0709 39.571C36.7709 41.871 31.5899 40.571 27.7569 36.743C23.9239 32.915 22.6289 27.729 24.9289 25.429C25.3576 24.9945 25.8824 24.6667 26.4609 24.472L27.8809 27.785L26.7739 28.338C26.5341 28.4581 26.3208 28.625 26.1465 28.8288C25.9722 29.0326 25.8404 29.2693 25.7589 29.5248C25.6775 29.7803 25.648 30.0495 25.6722 30.3166C25.6964 30.5837 25.7738 30.8433 25.8999 31.08C26.7753 32.6482 27.876 34.0794 29.1669 35.328C30.4158 36.6045 31.8413 37.6952 33.3999 38.567C33.6402 38.6974 33.904 38.7785 34.1761 38.8054C34.4481 38.8324 34.7227 38.8047 34.9839 38.724C35.2393 38.6445 35.476 38.514 35.6795 38.3404C35.883 38.1668 36.0491 37.9537 36.1679 37.714L36.8149 36.42L40.1819 36.901C40.1435 37.8954 39.7492 38.8429 39.0709 39.571Z" fill="white"/>
</svg>
