<svg width="7" height="7" viewBox="0 0 7 7" fill="none" xmlns="http://www.w3.org/2000/svg">
<path d="M6.7984 3.7882C6.86057 3.75608 6.91141 3.71312 6.94653 3.663C6.98165 3.61287 7 3.5571 7 3.50047C7 3.44385 6.98165 3.38808 6.94653 3.33795C6.91141 3.28783 6.86057 3.24486 6.7984 3.21275L0.73215 0.0625047C0.662181 0.0260405 0.580228 0.00465772 0.495195 0.000678041C0.410162 -0.00330116 0.325302 0.0102753 0.249833 0.0399332C0.174365 0.069591 0.111175 0.114196 0.0671289 0.168901C0.0230832 0.223606 -0.000133911 0.28632 2.87794e-07 0.350227L5.63198e-07 6.65072C0.000351666 6.71448 0.0238673 6.77696 0.0680186 6.83145C0.11217 6.88593 0.175286 6.93036 0.25058 6.95995C0.325874 6.98954 0.410497 7.00317 0.495348 6.99938C0.580199 6.99559 0.662067 6.97452 0.73215 6.93844L6.7984 3.7882Z" fill="white"/>
</svg>
