<svg width="59" height="60" viewBox="0 0 59 60" fill="none" xmlns="http://www.w3.org/2000/svg">
<rect y="0.92334" width="59" height="59" rx="29.5" fill="#0A1937"/>
<path d="M37.9862 28.0839H35.8887V22.2494C35.8887 21.5106 35.4342 20.9233 34.8749 20.9233H24.0727C23.5133 20.9233 23.0763 21.5106 23.0763 22.2494V28.0839H20.9963C20.437 28.0839 20 28.6711 20 29.4099V38.5973C20 39.3361 20.4545 39.9233 20.9963 39.9233H38.0037C38.563 39.9233 39 39.3361 39 38.5973V29.4099C39 28.6711 38.5455 28.0839 38.0037 28.0839H37.9862ZM24.3698 22.4577H34.5603V28.0839H24.3698V22.4577ZM37.6541 37.9911H21.2935V29.8645H37.6541V38.0101V37.9911ZM33.057 33.9752C33.057 34.4867 32.7424 34.9223 32.3404 34.9223H26.6072C26.2052 34.9223 25.8905 34.5056 25.8905 33.9752C25.8905 33.4448 26.2052 33.028 26.6072 33.028H32.3404C32.7424 33.028 33.057 33.4448 33.057 33.9752Z" fill="white"/>
</svg>
