<svg width="17" height="17" viewBox="0 0 17 17" fill="none" xmlns="http://www.w3.org/2000/svg">
<path d="M16.466 5.26095C16.4327 4.42805 16.2996 3.86168 16.0999 3.36193C15.9002 2.84554 15.634 2.41243 15.2013 1.97932C14.7687 1.54621 14.3361 1.27968 13.8202 1.07978C13.321 0.879885 12.7553 0.74662 11.9233 0.713304C11.0913 0.679988 10.825 0.66333 8.69509 0.66333C6.56516 0.66333 6.29892 0.66333 5.46691 0.713304C4.63491 0.74662 4.06915 0.879885 3.56995 1.07978C3.05411 1.27968 2.62146 1.54621 2.18882 1.97932C1.75618 2.41243 1.48995 2.84554 1.29027 3.36193C1.09059 3.86168 0.957466 4.42805 0.924186 5.26095C0.890906 6.09385 0.874268 6.36038 0.874268 8.49261C0.874268 10.6248 0.874266 10.8914 0.924186 11.7243C0.957466 12.5572 1.09059 13.1236 1.29027 13.6233C1.48995 14.1397 1.75618 14.5728 2.18882 15.0059C2.62146 15.439 3.05411 15.7056 3.56995 15.9054C4.06915 16.1053 4.63491 16.2386 5.46691 16.2719C6.29892 16.3052 6.56516 16.3219 8.69509 16.3219C10.825 16.3219 11.0913 16.3219 11.9233 16.2719C12.7553 16.2386 13.321 16.1053 13.8202 15.9054C14.3361 15.7056 14.7687 15.439 15.2013 15.0059C15.634 14.5728 15.9002 14.1397 16.0999 13.6233C16.2996 13.1236 16.4327 12.5572 16.466 11.7243C16.4993 10.8914 16.5159 10.6248 16.5159 8.49261C16.5159 6.36038 16.5159 6.09385 16.466 5.26095ZM15.0516 11.6743C15.0183 12.4406 14.8852 12.857 14.7853 13.1402C14.6356 13.5067 14.4692 13.7732 14.2029 14.0397C13.9367 14.3063 13.6704 14.4895 13.3044 14.6228C13.0215 14.7227 12.6055 14.856 11.8401 14.8893C11.0081 14.9226 10.7584 14.9393 8.67843 14.9393C6.59843 14.9393 6.3322 14.9393 5.51683 14.8893C4.75139 14.856 4.33538 14.7227 4.0525 14.6228C3.68642 14.4729 3.42019 14.3063 3.15395 14.0397C2.88771 13.7732 2.70466 13.5067 2.57154 13.1402C2.47169 12.857 2.33857 12.4406 2.30529 11.6743C2.27201 10.8414 2.25537 10.5915 2.25537 8.50927C2.25537 6.42702 2.25537 6.16049 2.30529 5.34424C2.33857 4.57797 2.47169 4.16152 2.57154 3.89499C2.7213 3.52852 2.88771 3.26199 3.15395 2.99546C3.42019 2.72893 3.68642 2.54569 4.0525 2.41243C4.33538 2.31248 4.75139 2.17921 5.51683 2.1459C6.34884 2.11258 6.59843 2.09592 8.67843 2.09592C10.7584 2.09592 11.0247 2.09592 11.8401 2.1459C12.6055 2.17921 13.0215 2.31248 13.3044 2.41243C13.6704 2.56235 13.9367 2.72893 14.2029 2.99546C14.4692 3.26199 14.6522 3.52852 14.7853 3.89499C14.8852 4.17818 15.0183 4.59463 15.0516 5.34424C15.0849 6.17715 15.1015 6.42702 15.1015 8.50927C15.1015 10.5915 15.1015 10.8581 15.0516 11.6743Z" fill="#ECE1D1"/>
<path d="M8.6785 4.46143C6.44873 4.46143 4.65161 6.2605 4.65161 8.49267C4.65161 10.7249 6.44873 12.5239 8.6785 12.5239C10.9083 12.5239 12.7054 10.7249 12.7054 8.49267C12.7054 6.2605 10.9083 4.46143 8.6785 4.46143ZM8.6785 11.108C7.23082 11.108 6.06603 9.94193 6.06603 8.49267C6.06603 7.04342 7.23082 5.87736 8.6785 5.87736C10.1262 5.87736 11.291 7.04342 11.291 8.49267C11.291 9.94193 10.1262 11.108 8.6785 11.108Z" fill="#ECE1D1"/>
<path d="M13.8035 4.31132C13.8035 3.79493 13.3875 3.36182 12.855 3.36182C12.3225 3.36182 11.9065 3.77827 11.9065 4.31132C11.9065 4.84438 12.3225 5.26083 12.855 5.26083C13.3875 5.26083 13.8035 4.84438 13.8035 4.31132Z" fill="#ECE1D1"/>
</svg>
