<svg width="11" height="14" viewBox="0 0 11 14" fill="none" xmlns="http://www.w3.org/2000/svg">
<path d="M5.5 0C2.45869 0 0 2.57639 0 5.73611C0 7.85069 2.21398 11.0226 4.07839 13.3073C4.42796 13.7448 4.95233 14 5.5 14C6.04767 14 6.57203 13.7448 6.92161 13.3073C8.78602 11.0226 11 7.85069 11 5.73611C11 2.57639 8.52966 0 5.5 0V0ZM6.10593 12.5903C5.95445 12.7726 5.73305 12.8819 5.5 12.8819C5.26695 12.8819 5.04555 12.7726 4.89407 12.5903C2.45869 9.60069 1.07204 7.10937 1.07204 5.74826C1.07204 3.19618 3.06462 1.13021 5.5 1.13021C7.93538 1.13021 9.92796 3.20833 9.92796 5.74826C9.92796 7.10937 8.52966 9.61285 6.10593 12.6024V12.5903Z" fill="#ECE1D1"/>
<path d="M5.50004 6.55033C6.0535 6.55033 6.50216 6.08241 6.50216 5.50519C6.50216 4.92798 6.0535 4.46005 5.50004 4.46005C4.94659 4.46005 4.49792 4.92798 4.49792 5.50519C4.49792 6.08241 4.94659 6.55033 5.50004 6.55033Z" fill="#ECE1D1"/>
</svg>
