<svg width="13" height="13" viewBox="0 0 13 13" fill="none" xmlns="http://www.w3.org/2000/svg">
<path d="M9.07079 11.3714C8.14382 11.8254 7.20449 12 6.07978 12C3.3236 12 1 10.1026 1 7.06455C1 3.80529 3.39775 1 7.11798 1C10.0348 1 12 2.93227 12 5.56296C12 7.93757 10.591 9.32275 9.00899 9.32275C8.34157 9.32275 7.71124 8.89206 7.77303 7.93757H7.71124C7.11798 8.86878 6.35169 9.32275 5.35056 9.32275C4.34944 9.32275 3.53371 8.57778 3.53371 7.33227C3.53371 5.37672 5.17753 3.58413 7.51348 3.58413C8.23034 3.58413 8.87303 3.72381 9.30562 3.92169L8.73708 6.78519C8.48989 7.98413 8.68764 8.54286 9.24382 8.5545C10.0966 8.56614 11.0607 7.49524 11.0607 5.66773C11.0607 3.3746 9.60225 1.73333 6.99438 1.73333C4.26292 1.73333 1.96405 3.77037 1.96405 6.98307C1.96405 9.6254 3.79326 11.255 6.27753 11.255C7.22921 11.255 8.1191 11.0688 8.81123 10.6963L9.08315 11.3714H9.07079ZM8.14382 4.55026C7.97079 4.5037 7.68652 4.4455 7.30337 4.4455C5.83258 4.4455 4.63371 5.76085 4.63371 7.28571C4.63371 7.98413 5.00449 8.48466 5.74607 8.48466C6.72247 8.48466 7.61236 7.32063 7.79775 6.33122L8.15618 4.55026H8.14382Z" fill="#ECE1D1" stroke="#ECE1D1" stroke-width="0.25" stroke-miterlimit="10"/>
</svg>
