<svg width="11" height="11" viewBox="0 0 11 11" fill="none" xmlns="http://www.w3.org/2000/svg">
<path d="M10.4131 4.14556H9.19871V0.767697C9.19871 0.33998 8.9356 0 8.61177 0H2.35786C2.03403 0 1.78104 0.33998 1.78104 0.767697V4.14556H0.576817C0.25299 4.14556 0 4.48554 0 4.91326V10.2323C0 10.66 0.263109 11 0.576817 11H10.4232C10.747 11 11 10.66 11 10.2323V4.91326C11 4.48554 10.7369 4.14556 10.4232 4.14556H10.4131ZM2.5299 0.888335H8.42962V4.14556H2.5299V0.888335ZM10.2208 9.88136H0.748848V5.17647H10.2208V9.89232V9.88136ZM7.55934 7.55633C7.55934 7.85244 7.37719 8.10469 7.14444 8.10469H3.82521C3.59246 8.10469 3.4103 7.86341 3.4103 7.55633C3.4103 7.24925 3.59246 7.00798 3.82521 7.00798H7.14444C7.37719 7.00798 7.55934 7.24925 7.55934 7.55633Z" fill="#ECE1D1"/>
</svg>
