<svg width="17" height="16" viewBox="0 0 17 16" fill="none" xmlns="http://www.w3.org/2000/svg">
<path d="M12.4287 14.1405C11.116 14.7157 9.78589 14.9369 8.19323 14.9369C4.29033 14.9369 1 12.533 1 8.68375C1 4.55429 4.39534 1 9.66338 1C13.7938 1 16.5766 3.44818 16.5766 6.78125C16.5766 9.78986 14.5814 11.5449 12.3411 11.5449C11.3961 11.5449 10.5035 10.9992 10.591 9.78986H10.5035C9.66338 10.9697 8.57827 11.5449 7.16062 11.5449C5.74298 11.5449 4.58786 10.601 4.58786 9.02296C4.58786 6.54528 6.9156 4.27407 10.2234 4.27407C11.2385 4.27407 12.1486 4.45105 12.7612 4.70177L11.9561 8.3298C11.6061 9.84885 11.8861 10.5568 12.6737 10.5715C13.8813 10.5863 15.2464 9.22943 15.2464 6.91398C15.2464 4.00861 13.1812 1.92913 9.48836 1.92913C5.62047 1.92913 2.36514 4.51004 2.36514 8.58051C2.36514 11.9283 4.9554 13.9931 8.47326 13.9931C9.82089 13.9931 11.081 13.7571 12.0611 13.2852L12.4462 14.1405H12.4287ZM11.116 5.49817C10.871 5.43917 10.4685 5.36543 9.9259 5.36543C7.84319 5.36543 6.14552 7.03196 6.14552 8.96396C6.14552 9.84885 6.67057 10.483 7.72068 10.483C9.10332 10.483 10.3634 9.00821 10.626 7.75462L11.1335 5.49817H11.116Z" fill="black" stroke="black" stroke-width="0.204955" stroke-miterlimit="10"/>
</svg>
