<svg width="16" height="21" viewBox="0 0 16 21" fill="none" xmlns="http://www.w3.org/2000/svg">
<path d="M7.78829 0C3.48163 0 0 3.77174 0 8.39746C0 11.4931 3.13512 16.1366 5.77521 19.4814C6.27023 20.1219 7.01276 20.4955 7.78829 20.4955C8.56382 20.4955 9.30635 20.1219 9.80136 19.4814C12.4415 16.1366 15.5766 11.4931 15.5766 8.39746C15.5766 3.77174 12.0784 0 7.78829 0V0ZM8.64632 18.4317C8.43181 18.6986 8.1183 18.8587 7.78829 18.8587C7.45828 18.8587 7.14476 18.6986 6.93026 18.4317C3.48163 14.0551 1.51806 10.4079 1.51806 8.41525C1.51806 4.67909 4.33966 1.65458 7.78829 1.65458C11.2369 1.65458 14.0585 4.69688 14.0585 8.41525C14.0585 10.4079 12.0784 14.0729 8.64632 18.4495V18.4317Z" fill="black"/>
<path d="M7.78832 9.83787C8.46748 9.83787 9.01805 9.10378 9.01805 8.19823C9.01805 7.29269 8.46748 6.55859 7.78832 6.55859C7.10916 6.55859 6.55859 7.29269 6.55859 8.19823C6.55859 9.10378 7.10916 9.83787 7.78832 9.83787Z" fill="black"/>
</svg>
