<svg width="171" height="41" viewBox="0 0 171 41" fill="none" xmlns="http://www.w3.org/2000/svg">
<path d="M5.81667 22.5532V33.3131C5.81667 33.3131 5.84712 33.5259 5.90803 33.6171C5.96894 33.7386 6.09075 33.769 6.24303 33.769H6.69984V35.6231H5.57303C5.08577 35.6231 4.68986 35.4408 4.32441 35.1064C3.89806 34.7113 3.71533 34.225 3.71533 33.6171V22.5532H5.81667Z" fill="#323B59"/>
<path d="M48.5744 30.4256C48.9703 29.2401 49.6707 28.3283 50.7062 27.69C51.4675 27.2341 52.3203 26.9909 53.2034 26.9909C54.0866 26.9909 54.9393 27.2341 55.6702 27.7508C56.6143 28.3587 57.2843 29.2401 57.6802 30.3952L57.467 30.9119C57.0102 31.1246 56.5229 31.5198 56.0052 32.0365C55.5179 32.5836 55.2134 33.1611 55.0611 33.7082H57.8325V35.5623H54.0257C53.6907 35.5623 53.4166 35.4104 53.1425 35.076H53.0512C52.7771 35.38 52.4725 35.5623 52.1375 35.5623H6.69995V33.7082H51.1934C51.0412 33.2219 50.7671 32.6748 50.3103 32.1277C49.823 31.5502 49.3053 31.1246 48.7571 30.9119L48.5744 30.3952V30.4256ZM55.4875 30.2736C55.2134 29.7569 54.8479 29.3921 54.3607 29.149C53.9952 28.9666 53.5993 28.8754 53.173 28.8754C52.7162 28.8754 52.2593 28.9666 51.8634 29.1794C51.4066 29.4225 51.0412 29.7873 50.7975 30.2736C51.1935 30.456 51.6198 30.8207 52.0462 31.3678C52.5334 31.9453 52.8989 32.5532 53.1121 33.2219H53.173C53.3861 32.5532 53.7516 31.8845 54.2998 31.2766C54.7261 30.7903 55.122 30.456 55.4875 30.2736Z" fill="#323B59"/>
<path d="M60.8474 30.3952C60.8474 29.2401 61.2128 28.3587 61.9742 27.7508C62.5832 27.2645 63.4055 27.0213 64.4409 27.0213C65.4764 27.0213 66.3291 27.3253 67.0295 27.9635C67.9127 28.7538 68.3695 29.9088 68.3695 31.3678C68.3695 32.766 68.0345 33.921 67.3036 34.8329C66.6336 35.7143 65.7505 36.1702 64.6541 36.1702C63.71 36.1702 62.9487 35.8055 62.4005 35.0456C62.0351 35.4408 61.5783 35.6231 61.0605 35.6231H57.7715V33.769H60.421C60.421 33.769 60.6646 33.7082 60.756 33.617C60.8474 33.5259 60.8778 33.4347 60.8778 33.3131V30.3952H60.8474ZM62.9487 33.5867C63.375 34.073 63.8623 34.3161 64.4105 34.3161C64.9587 34.3161 65.385 34.073 65.7505 33.5563C66.0855 33.0395 66.2682 32.4012 66.2682 31.5806C66.2682 30.6991 66.0855 30.0304 65.6896 29.5137C65.3546 29.0882 64.8978 28.8754 64.3496 28.8754C63.9232 28.8754 63.6187 29.0274 63.375 29.3009C63.101 29.5745 62.9487 29.9392 62.9487 30.3952V33.5867Z" fill="#323B59"/>
<path d="M9.92805 4.7115H7.03491C6.88264 3.55648 6.21264 2.79661 5.02493 2.79661C4.14176 2.79661 3.50223 3.22214 3.50223 4.13399C3.50223 5.04585 4.14176 5.59296 6.18219 6.07928C8.95352 6.74797 10.1717 8.05496 10.1717 10.0306C10.1717 12.4927 7.88762 13.7996 5.35993 13.7996C2.25361 13.7996 0.213179 12.4927 0 9.75709H2.86269C3.10632 11.0641 4.14176 11.672 5.26857 11.672C6.30401 11.672 7.12627 11.1249 7.12627 10.2738C7.12627 9.42275 6.54764 8.78445 4.81175 8.38931C2.13179 7.69022 0.487266 6.80876 0.487266 4.37715C0.487266 1.94554 2.64951 0.668945 5.1163 0.668945C8.25307 0.668945 9.65396 2.43186 9.92805 4.7115Z" fill="#323B59"/>
<path d="M15.0443 9.78749C15.0443 10.1218 15.0443 10.4562 15.0443 10.6993C15.1052 11.672 15.4402 11.8848 16.902 11.7936V13.6173C16.3234 13.7085 15.7448 13.7693 15.1357 13.7693C13.0039 13.7693 12.3035 13.0702 12.1816 11.6416C12.1512 11.1553 12.1512 10.6993 12.1512 10.1522V5.68415H10.6589V3.86044H12.1512V1.39844H15.0139V3.86044H17.0848V5.68415H15.0139V9.78749H15.0443Z" fill="#323B59"/>
<path d="M24.6374 3.58688V5.89691C22.3533 5.74494 21.3788 6.65679 21.3788 9.42275V13.4957H18.5161V3.79965H21.3788V5.65375L22.1097 4.28597C22.597 3.76925 23.3279 3.52609 23.876 3.52609C24.1806 3.52609 24.3938 3.55649 24.6069 3.58688H24.6374Z" fill="#323B59"/>
<path d="M35.4485 8.63248C35.4485 11.672 33.5299 13.7693 30.3018 13.7693C27.0736 13.7693 25.155 11.672 25.155 8.63248C25.155 5.59296 27.0736 3.52609 30.3018 3.52609C33.5299 3.52609 35.4485 5.62336 35.4485 8.63248ZM32.4945 8.63248C32.4945 6.596 31.6722 5.50178 30.3018 5.50178C28.9313 5.50178 28.1091 6.6264 28.1091 8.63248C28.1091 10.6386 28.9313 11.7936 30.3018 11.7936C31.6722 11.7936 32.4945 10.6689 32.4945 8.63248Z" fill="#323B59"/>
<path d="M46.5035 8.02457V13.5261H43.6408V8.45011C43.6408 8.08536 43.6408 7.59904 43.6103 7.08232C43.5494 6.10968 43.0012 5.47138 41.8744 5.47138C40.7476 5.47138 39.8949 6.50482 39.8949 8.96682V13.4957H37.0322V3.79965H39.8949V5.31941L40.7172 4.16439C41.3872 3.73886 42.0572 3.55649 43.0012 3.55649C45.0417 3.55649 46.2294 4.55953 46.473 6.23126C46.5339 6.71758 46.5644 7.2647 46.5644 8.05497L46.5035 8.02457Z" fill="#323B59"/>
<path d="M58.3806 11.0641C58.3806 11.672 58.3806 12.4319 58.3806 12.9486C58.2588 16.0793 56.1879 17.5079 52.9902 17.5079C50.1275 17.5079 48.4221 16.3224 48.2089 14.134V13.9516H50.9802V14.1036C51.102 14.8939 51.8634 15.3802 53.0816 15.3802C54.4825 15.3802 55.4265 14.7115 55.4874 13.2525C55.4874 12.9182 55.5179 12.4927 55.5179 12.0367V11.7936L54.787 12.8574C54.2388 13.2525 53.4166 13.4957 52.4116 13.4957C49.7012 13.4957 47.9348 11.6112 47.9348 8.72366C47.9348 5.22822 50.0666 3.52609 52.5943 3.52609C53.4166 3.52609 54.3606 3.73886 54.8784 4.04281L55.5179 5.07624V3.79965H58.3806V11.0641ZM55.5179 8.5109V8.32852C55.5179 6.23126 54.3606 5.50178 53.2947 5.50178C51.8939 5.50178 50.9193 6.38324 50.9193 8.5109C50.9193 10.4258 51.8634 11.52 53.2034 11.52C54.5434 11.52 55.5179 10.6993 55.5179 8.4805V8.5109Z" fill="#323B59"/>
<path d="M69.6792 9.39235H62.827C62.9792 11.2465 63.8015 11.7936 64.8674 11.7936C65.8724 11.7936 66.5424 11.2465 66.7251 10.3346H69.5573C69.0396 12.5838 67.1819 13.7693 64.8065 13.7693C62.0656 13.7693 59.9338 12.0975 59.9338 8.66287C59.9338 5.74494 61.8829 3.4957 64.9892 3.4957C68.0955 3.4957 69.7096 5.86652 69.7096 8.4501C69.7096 8.69327 69.7096 9.02761 69.6487 9.36196L69.6792 9.39235ZM62.8879 7.56865H66.7251C66.5728 6.20086 65.9333 5.47138 64.8674 5.47138C63.8015 5.47138 63.1315 6.10968 62.8879 7.56865Z" fill="#323B59"/>
<path d="M77.4145 3.58688V5.89691C75.1304 5.74494 74.1559 6.65679 74.1559 9.42275V13.4957H71.2932V3.79965H74.1559V5.65375L74.8868 4.28597C75.3741 3.76925 76.105 3.52609 76.6531 3.52609C76.9577 3.52609 77.1709 3.55649 77.384 3.58688H77.4145Z" fill="#323B59"/>
<path d="M5.81667 22.5534V33.3133C5.81667 33.3133 5.84712 33.5261 5.90803 33.6172C5.96894 33.7388 6.09075 33.7692 6.24303 33.7692H6.69984V35.6233H5.57303C5.08577 35.6233 4.68986 35.4409 4.32441 35.1066C3.89806 34.7115 3.71533 34.2251 3.71533 33.6172V22.5534H5.81667Z" fill="#DABE96"/>
<path d="M48.5744 30.4257C48.9703 29.2403 49.6707 28.3285 50.7062 27.6902C51.4675 27.2342 52.3203 26.9911 53.2034 26.9911C54.0866 26.9911 54.9393 27.2342 55.6702 27.751C56.6143 28.3589 57.2843 29.2403 57.6802 30.3953L57.467 30.9121C57.0102 31.1248 56.5229 31.52 56.0052 32.0367C55.5179 32.5838 55.2134 33.1613 55.0611 33.7084H57.8325V35.5625H54.0257C53.6907 35.5625 53.4166 35.4105 53.1425 35.0762H53.0512C52.7771 35.3801 52.4725 35.5625 52.1375 35.5625H6.69995V33.7084H51.1934C51.0412 33.2221 50.7671 32.675 50.3103 32.1279C49.823 31.5504 49.3053 31.1248 48.7571 30.9121L48.5744 30.3953V30.4257ZM55.4875 30.2738C55.2134 29.757 54.8479 29.3923 54.3607 29.1491C53.9952 28.9668 53.5993 28.8756 53.173 28.8756C52.7162 28.8756 52.2593 28.9668 51.8634 29.1795C51.4066 29.4227 51.0412 29.7874 50.7975 30.2738C51.1935 30.4561 51.6198 30.8209 52.0462 31.368C52.5334 31.9455 52.8989 32.5534 53.1121 33.2221H53.173C53.3861 32.5534 53.7516 31.8847 54.2998 31.2768C54.7261 30.7905 55.122 30.4561 55.4875 30.2738Z" fill="#DABE96"/>
<path d="M60.8474 30.3953C60.8474 29.2403 61.2128 28.3589 61.9742 27.751C62.5832 27.2646 63.4055 27.0215 64.4409 27.0215C65.4764 27.0215 66.3291 27.3254 67.0295 27.9637C67.9127 28.754 68.3695 29.909 68.3695 31.368C68.3695 32.7662 68.0345 33.9212 67.3036 34.833C66.6336 35.7145 65.7505 36.1704 64.6541 36.1704C63.71 36.1704 62.9487 35.8057 62.4005 35.0458C62.0351 35.4409 61.5783 35.6233 61.0605 35.6233H57.7715V33.7692H60.421C60.421 33.7692 60.6646 33.7084 60.756 33.6172C60.8474 33.526 60.8778 33.4349 60.8778 33.3133V30.3953H60.8474ZM62.9487 33.5868C63.375 34.0732 63.8623 34.3163 64.4105 34.3163C64.9587 34.3163 65.385 34.0732 65.7505 33.5564C66.0855 33.0397 66.2682 32.4014 66.2682 31.5808C66.2682 30.6993 66.0855 30.0306 65.6896 29.5139C65.3546 29.0884 64.8978 28.8756 64.3496 28.8756C63.9232 28.8756 63.6187 29.0276 63.375 29.3011C63.101 29.5747 62.9487 29.9394 62.9487 30.3953V33.5868Z" fill="#DABE96"/>
<path d="M92.3977 34.985C92.3977 36.1704 92.6718 36.9911 93.2504 37.447C93.8291 37.9029 94.8341 38.1461 96.2959 38.1461C98.519 38.1461 99.6458 37.5078 99.6458 36.2616C99.6458 35.8057 99.4935 35.4409 99.2195 35.1978C98.9454 34.9546 98.4276 34.6811 97.6358 34.4379C96.5395 34.0732 95.7477 33.6172 95.2909 33.1005C94.7731 32.523 94.5295 31.7327 94.5295 30.7297C94.5295 29.4227 94.9254 28.4501 95.6868 27.8118C96.3263 27.2646 97.2095 27.0215 98.3058 27.0215C99.0063 27.0215 99.6763 27.1431 100.316 27.3558V29.0276C99.6763 28.8452 99.1281 28.7844 98.6408 28.7844C97.9708 28.7844 97.4836 28.9668 97.1181 29.3011C96.7527 29.6659 96.5699 30.1522 96.5699 30.7601C96.5699 31.2464 96.6918 31.6415 96.9658 31.9151C97.2399 32.1887 97.7881 32.4622 98.6104 32.7966C99.6763 33.1917 100.438 33.6476 100.864 34.1036C101.412 34.6811 101.686 35.4105 101.686 36.292C101.686 37.6598 101.108 38.6628 99.9504 39.3315C99.1281 39.8178 98.0926 40.0306 96.9049 40.0306H95.1995C93.8595 40.0306 92.7632 39.6963 91.9105 38.9972C90.8446 38.1461 90.2964 36.8999 90.2964 35.2282V33.3741L91.3623 32.4926H92.3977V35.0458V34.985Z" fill="#DABE96"/>
<path d="M108.295 35.6233C107.016 35.6233 106.041 35.1674 105.31 34.2555C104.701 33.4653 104.397 32.523 104.397 31.368C104.397 30.0002 104.762 28.9364 105.493 28.1765C106.254 27.3862 107.229 27.0215 108.417 27.0215C109.269 27.0215 110.031 27.2342 110.67 27.6902C111.493 28.3285 111.919 29.2099 111.919 30.3953V33.7692H112.467V35.6233H111.888C111.797 36.9303 111.371 37.9637 110.579 38.7236C110.031 39.2403 109.361 39.6051 108.599 39.7874C108.051 39.909 107.534 40.0002 107.016 40.0002C106.833 40.0002 106.589 40.0002 106.285 39.9698H106.224L105.341 38.8148V38.0245C105.828 38.1157 106.254 38.1461 106.681 38.1461C108.569 38.1461 109.604 37.3254 109.787 35.6537H108.356L108.295 35.6233ZM109.787 30.3649C109.787 29.8786 109.635 29.4835 109.33 29.2099C109.056 28.9668 108.752 28.8452 108.386 28.8452C107.808 28.8452 107.32 29.058 106.985 29.5139C106.65 29.9394 106.468 30.5473 106.468 31.3376C106.468 32.1279 106.65 32.675 107.046 33.1005C107.442 33.526 107.96 33.7692 108.599 33.7692H109.787V30.3953V30.3649Z" fill="#DABE96"/>
<path d="M155.408 33.7692C155.133 33.4045 154.92 33.0093 154.798 32.4926C154.677 32.0367 154.616 31.5808 154.616 31.0944C154.616 30.0306 154.92 29.1188 155.499 28.4197C156.26 27.4774 157.296 26.9911 158.666 26.9911C159.641 26.9911 160.432 27.2647 161.102 27.8118C161.803 28.4501 162.168 29.3011 162.168 30.365V33.5868C162.168 34.0732 162.016 34.5291 161.712 34.9242C161.346 35.3802 160.889 35.5929 160.311 35.5929H112.528V33.7388H155.468L155.408 33.7692ZM157.326 23.2221C157.631 23.2221 157.905 23.3437 158.118 23.5565C158.331 23.7996 158.453 24.0732 158.453 24.4075C158.453 24.7419 158.331 24.985 158.118 25.2282C157.905 25.4713 157.631 25.5625 157.326 25.5625C157.022 25.5625 156.778 25.441 156.565 25.2282C156.352 24.985 156.23 24.7115 156.23 24.4075C156.23 24.1036 156.352 23.7996 156.565 23.5565C156.778 23.3133 157.052 23.2221 157.326 23.2221ZM160.006 30.3954C160.006 29.909 159.854 29.4835 159.519 29.1796C159.275 28.9668 158.971 28.8756 158.636 28.8756C157.874 28.8756 157.357 29.1796 157.022 29.8179C156.808 30.213 156.687 30.6993 156.687 31.3072C156.687 32.1279 156.93 32.7662 157.417 33.2221C157.813 33.5868 158.331 33.7996 158.971 33.7996H159.58C159.854 33.7996 160.006 33.6476 160.006 33.3437V30.4258V30.3954ZM159.945 23.2221C160.25 23.2221 160.524 23.3437 160.737 23.5565C160.95 23.7692 161.072 24.0732 161.072 24.4075C161.072 24.7419 160.95 24.985 160.737 25.2282C160.524 25.4713 160.25 25.5625 159.945 25.5625C159.641 25.5625 159.397 25.441 159.153 25.2282C158.94 24.985 158.818 24.7115 158.818 24.4075C158.818 24.1036 158.94 23.7996 159.153 23.5565C159.367 23.3133 159.641 23.2221 159.945 23.2221Z" fill="#DABE96"/>
<path d="M165.183 20.1826C165.001 19.8786 164.879 19.5139 164.879 19.1188C164.879 18.6324 165.031 18.2069 165.305 17.8726C165.579 17.5382 165.975 17.3862 166.401 17.3862C166.736 17.3862 167.041 17.447 167.376 17.5382V18.5109C167.102 18.4501 166.858 18.3893 166.706 18.3893C166.219 18.3893 165.975 18.6932 165.975 19.2707C165.975 19.5139 166.036 19.6963 166.158 19.8482C166.31 20.061 166.493 20.1522 166.767 20.1522H167.924V20.6081L167.528 21.1248H164.452V20.1522H165.153L165.183 20.1826ZM167.285 22.5534V35.1674L166.219 36.0792H165.183V22.5534H167.285Z" fill="#DABE96"/>
<path d="M9.92805 4.71125H7.03491C6.88264 3.55624 6.21264 2.79636 5.02493 2.79636C4.14176 2.79636 3.50223 3.22189 3.50223 4.13375C3.50223 5.0456 4.14176 5.59271 6.18219 6.07904C8.95352 6.74773 10.1717 8.05472 10.1717 10.0304C10.1717 12.4924 7.88762 13.7994 5.35993 13.7994C2.25361 13.7994 0.213179 12.4924 0 9.75685H2.86269C3.10632 11.0638 4.14176 11.6717 5.26857 11.6717C6.30401 11.6717 7.12627 11.1246 7.12627 10.2736C7.12627 9.4225 6.54764 8.7842 4.81175 8.38907C2.13179 7.68998 0.487266 6.80852 0.487266 4.37691C0.487266 1.9453 2.64951 0.668701 5.1163 0.668701C8.25307 0.668701 9.65396 2.43162 9.92805 4.71125Z" fill="#DABE96"/>
<path d="M15.0443 9.78722C15.0443 10.1216 15.0443 10.4559 15.0443 10.6991C15.1052 11.6717 15.4402 11.8845 16.902 11.7933V13.617C16.3234 13.7082 15.7448 13.769 15.1357 13.769C13.0039 13.769 12.3035 13.0699 12.1816 11.6413C12.1512 11.155 12.1512 10.6991 12.1512 10.152V5.68388H10.6589V3.86017H12.1512V1.39816H15.0139V3.86017H17.0848V5.68388H15.0139V9.78722H15.0443Z" fill="#DABE96"/>
<path d="M24.6374 3.58664V5.89667C22.3533 5.74469 21.3788 6.65655 21.3788 9.42251V13.4955H18.5161V3.7994H21.3788V5.65351L22.1097 4.28573C22.597 3.76901 23.3279 3.52585 23.876 3.52585C24.1806 3.52585 24.3938 3.55624 24.6069 3.58664H24.6374Z" fill="#DABE96"/>
<path d="M35.4485 8.63223C35.4485 11.6717 33.5299 13.769 30.3018 13.769C27.0736 13.769 25.155 11.6717 25.155 8.63223C25.155 5.59272 27.0736 3.52585 30.3018 3.52585C33.5299 3.52585 35.4485 5.62311 35.4485 8.63223ZM32.4945 8.63223C32.4945 6.59576 31.6722 5.50153 30.3018 5.50153C28.9313 5.50153 28.1091 6.62615 28.1091 8.63223C28.1091 10.6383 28.9313 11.7933 30.3018 11.7933C31.6722 11.7933 32.4945 10.6687 32.4945 8.63223Z" fill="#DABE96"/>
<path d="M46.5035 8.02433V13.5258H43.6408V8.44986C43.6408 8.08512 43.6408 7.5988 43.6103 7.08208C43.5494 6.10944 43.0012 5.47114 41.8744 5.47114C40.7476 5.47114 39.8949 6.50457 39.8949 8.96658V13.4955H37.0322V3.79941H39.8949V5.31916L40.7172 4.16415C41.3872 3.73861 42.0572 3.55624 43.0012 3.55624C45.0417 3.55624 46.2294 4.55928 46.473 6.23102C46.5339 6.71734 46.5644 7.26445 46.5644 8.05472L46.5035 8.02433Z" fill="#DABE96"/>
<path d="M58.3806 11.0638C58.3806 11.6717 58.3806 12.4316 58.3806 12.9483C58.2588 16.079 56.1879 17.5076 52.9902 17.5076C50.1275 17.5076 48.4221 16.3222 48.2089 14.1338V13.9514H50.9802V14.1034C51.102 14.8936 51.8634 15.38 53.0816 15.38C54.4825 15.38 55.4265 14.7113 55.4874 13.2523C55.4874 12.9179 55.5179 12.4924 55.5179 12.0365V11.7933L54.787 12.8572C54.2388 13.2523 53.4166 13.4955 52.4116 13.4955C49.7012 13.4955 47.9348 11.611 47.9348 8.72342C47.9348 5.22798 50.0666 3.52585 52.5943 3.52585C53.4166 3.52585 54.3606 3.73861 54.8784 4.04257L55.5179 5.076V3.7994H58.3806V11.0638ZM55.5179 8.51065V8.32828C55.5179 6.23102 54.3606 5.50153 53.2947 5.50153C51.8939 5.50153 50.9193 6.38299 50.9193 8.51065C50.9193 10.4255 51.8634 11.5198 53.2034 11.5198C54.5434 11.5198 55.5179 10.6991 55.5179 8.48026V8.51065Z" fill="#DABE96"/>
<path d="M69.6792 9.39211H62.827C62.9792 11.2462 63.8015 11.7933 64.8674 11.7933C65.8724 11.7933 66.5424 11.2462 66.7251 10.3344H69.5573C69.0396 12.5836 67.1819 13.769 64.8065 13.769C62.0656 13.769 59.9338 12.0973 59.9338 8.66263C59.9338 5.74469 61.8829 3.49545 64.9892 3.49545C68.0955 3.49545 69.7096 5.86627 69.7096 8.44986C69.7096 8.69302 69.7096 9.02737 69.6487 9.36171L69.6792 9.39211ZM62.8879 7.5684H66.7251C66.5728 6.20062 65.9333 5.47114 64.8674 5.47114C63.8015 5.47114 63.1315 6.10943 62.8879 7.5684Z" fill="#DABE96"/>
<path d="M77.4145 3.58664V5.89667C75.1304 5.74469 74.1559 6.65655 74.1559 9.42251V13.4955H71.2932V3.7994H74.1559V5.65351L74.8868 4.28573C75.3741 3.76901 76.105 3.52585 76.6531 3.52585C76.9577 3.52585 77.1709 3.55624 77.384 3.58664H77.4145Z" fill="#DABE96"/>
<path d="M97.4838 3.13071V13.5258H94.6211V3.13071H90.4185V0.911865H101.717V3.13071H97.5143H97.4838Z" fill="#DABE96"/>
<path d="M111.31 8.63223C111.31 11.6717 109.391 13.769 106.163 13.769C102.935 13.769 101.016 11.6717 101.016 8.63223C101.016 5.59272 102.935 3.52585 106.163 3.52585C109.391 3.52585 111.31 5.62311 111.31 8.63223ZM108.356 8.63223C108.356 6.59576 107.534 5.50153 106.163 5.50153C104.793 5.50153 103.97 6.62615 103.97 8.63223C103.97 10.6383 104.793 11.7933 106.163 11.7933C107.534 11.7933 108.356 10.6687 108.356 8.63223Z" fill="#DABE96"/>
<path d="M122.669 11.0638C122.669 11.6717 122.669 12.4316 122.669 12.9483C122.548 16.079 120.477 17.5076 117.279 17.5076C114.416 17.5076 112.711 16.3222 112.498 14.1338V13.9514H115.269V14.1034C115.391 14.8936 116.152 15.38 117.37 15.38C118.771 15.38 119.715 14.7113 119.776 13.2523C119.776 12.9179 119.807 12.4924 119.807 12.0365V11.7933L119.076 12.8572C118.528 13.2523 117.705 13.4955 116.7 13.4955C113.99 13.4955 112.224 11.611 112.224 8.72342C112.224 5.22798 114.355 3.52585 116.883 3.52585C117.705 3.52585 118.649 3.73861 119.167 4.04257L119.807 5.076V3.7994H122.669V11.0638ZM119.807 8.51065V8.32828C119.807 6.23102 118.649 5.50153 117.584 5.50153C116.183 5.50153 115.208 6.38299 115.208 8.51065C115.208 10.4255 116.152 11.5198 117.492 11.5198C118.832 11.5198 119.807 10.6991 119.807 8.48026V8.51065Z" fill="#DABE96"/>
<path d="M133.968 9.39211H127.116C127.268 11.2462 128.09 11.7933 129.156 11.7933C130.161 11.7933 130.831 11.2462 131.014 10.3344H133.846C133.328 12.5836 131.471 13.769 129.095 13.769C126.354 13.769 124.222 12.0973 124.222 8.66263C124.222 5.74469 126.171 3.49545 129.278 3.49545C132.384 3.49545 133.998 5.86627 133.998 8.44986C133.998 8.69302 133.998 9.02737 133.937 9.36171L133.968 9.39211ZM127.176 7.5684H131.014C130.861 6.20062 130.222 5.47114 129.156 5.47114C128.09 5.47114 127.42 6.10943 127.176 7.5684Z" fill="#DABE96"/>
<path d="M139.054 9.78722C139.054 10.1216 139.054 10.4559 139.054 10.6991C139.115 11.6717 139.45 11.8845 140.911 11.7933V13.617C140.333 13.7082 139.754 13.769 139.145 13.769C137.013 13.769 136.313 13.0699 136.191 11.6413C136.16 11.155 136.16 10.6991 136.16 10.152V5.68388H134.668V3.86017H136.16V1.39816H139.023V3.86017H141.094V5.68388H139.023V9.78722H139.054Z" fill="#DABE96"/>
<path d="M152.027 8.02432V13.5258H149.164V8.44985C149.164 8.08511 149.164 7.59878 149.134 7.08207C149.073 6.10942 148.525 5.47112 147.398 5.47112C146.271 5.47112 145.419 6.50456 145.419 8.96657V13.4954H142.556V0H145.419V5.31915L146.241 4.16413C146.911 3.7386 147.581 3.55623 148.525 3.55623C150.565 3.55623 151.753 4.55927 151.997 6.231C152.058 6.71732 152.088 7.26444 152.088 8.05471L152.027 8.02432Z" fill="#DABE96"/>
<path d="M163.204 9.39211H156.352C156.504 11.2462 157.326 11.7933 158.392 11.7933C159.397 11.7933 160.067 11.2462 160.25 10.3344H163.082C162.564 12.5836 160.707 13.769 158.331 13.769C155.59 13.769 153.458 12.0973 153.458 8.66263C153.458 5.74469 155.408 3.49545 158.514 3.49545C161.62 3.49545 163.234 5.86627 163.234 8.44986C163.234 8.69302 163.234 9.02737 163.173 9.36171L163.204 9.39211ZM156.413 7.5684H160.25C160.097 6.20062 159.458 5.47114 158.392 5.47114C157.326 5.47114 156.656 6.10943 156.413 7.5684Z" fill="#DABE96"/>
<path d="M170.969 3.58664V5.89667C168.685 5.74469 167.711 6.65655 167.711 9.42251V13.4955H164.848V3.7994H167.711V5.65351L168.442 4.28573C168.929 3.76901 169.66 3.52585 170.208 3.52585C170.513 3.52585 170.726 3.55624 170.939 3.58664H170.969Z" fill="#DABE96"/>
<path d="M77.2924 31.5198L75.9829 35.8359L83.1396 11.7326L88.3473 5.22803L77.2924 31.5198Z" fill="#ED6E31"/>
</svg>
