<svg width="183" height="113" viewBox="0 0 183 113" fill="none" xmlns="http://www.w3.org/2000/svg">
<path d="M175.178 0.532666C172.298 3.47648 169.504 6.4483 166.84 9.47623C164.175 12.5042 161.595 15.5602 159.146 18.6442C155.449 23.2422 151.925 27.8962 148.53 32.5783C147.498 33.5876 146.467 34.5969 145.392 35.5782C142.77 38.0454 140.019 40.4565 137.226 42.8395C137.269 42.8115 137.269 42.8115 137.312 42.7835C137.269 42.8115 137.226 42.8676 137.183 42.8957C137.183 42.9237 137.14 42.9237 137.096 42.9518C137.096 42.9518 137.096 42.9237 137.14 42.9237C129.533 49.3159 121.237 55.4279 112.124 60.923C112.124 60.867 112.167 60.7829 112.167 60.7268C112.341 59.7456 112.512 58.7643 112.684 57.7549C112.899 56.7456 113.156 55.7643 113.672 54.7831C113.843 54.4466 113.586 54.0541 113.114 53.8578C112.684 53.6897 111.953 53.6897 111.609 53.9981C110.105 55.2597 108.257 56.2971 106.409 57.3344C105.506 57.8391 104.604 58.3156 103.701 58.8203C103.787 58.4559 103.873 58.0633 103.958 57.6988C104.001 57.3904 104.001 57.082 103.916 56.8017C103.873 56.6055 103.83 56.4092 103.744 56.213C103.658 56.0167 103.529 55.8485 103.4 55.6522C103.143 55.2317 102.111 55.0915 101.552 55.3438C98.4577 56.8018 94.9752 57.8671 91.7947 59.2409C91.8377 59.0727 91.8377 58.9044 91.8377 58.7643C91.8806 58.3437 91.8806 57.9512 91.7947 57.5307C91.7518 57.2783 91.6659 57.026 91.58 56.7736C91.4942 56.5214 91.3224 56.2971 91.1506 56.0727C90.9789 55.8485 90.591 55.6802 90.2474 55.6242C89.7321 55.5401 89.131 55.6242 88.786 55.8765C84.1441 58.9044 78.8151 61.4277 73.8297 64.2033C73.9585 63.25 74.0444 62.2968 74.2161 61.3436C74.302 61.1473 74.302 60.9511 74.2161 60.7549C74.0873 60.4745 73.7867 60.2221 73.3988 60.082C72.7118 59.8296 71.8086 59.8857 71.2503 60.2502C67.2096 62.8295 63.385 65.5771 58.9148 67.8481C56.7663 68.9132 54.5305 69.8385 52.0385 70.5397C51.2212 70.7638 50.4053 70.9318 49.5451 71.0999C51.8224 66.4742 53.9723 61.8482 56.2496 57.2223C56.5073 56.6615 56.0779 56.0447 55.3479 55.7643C54.5735 55.4559 53.5859 55.5681 52.9403 55.9606C47.4396 59.4091 42.2809 63.0819 36.9949 66.6705C33.385 69.1093 29.6877 71.493 25.7773 73.7637C28.9148 70.7077 32.0094 67.6518 35.0182 64.5117C39.2722 60.054 43.3129 55.5121 46.6222 50.7459C49.8027 46.1759 52.3821 41.4378 53.5858 36.4753C53.6717 36.223 53.6717 35.9706 53.5858 35.7183C53.5 35.466 53.2838 35.2698 53.0262 35.0735C52.3391 34.6249 51.2212 34.5408 50.3624 34.8492C47.6543 35.8585 45.1608 37.1482 42.8835 38.55C41.2933 39.5313 39.7889 40.5406 38.3704 41.606C38.5422 41.2976 38.671 40.9892 38.8428 40.6528C41.3362 35.5501 42.8835 30.2512 43.3988 24.8963C41.2933 29.0737 38.9286 33.1951 36.5225 37.2883C35.3187 39.3069 34.115 41.2976 32.9541 43.3162C31.7947 45.2788 30.5909 47.2413 29.3442 49.1758V49.1478C29.3442 49.1478 29.3442 49.1758 29.3013 49.1758C29.2583 49.2599 29.1724 49.3721 29.1295 49.4562C29.1724 49.4001 29.1725 49.3721 29.2154 49.3159C29.0866 49.5122 28.9577 49.6805 28.8289 49.8767C26.4643 52.2317 24.2729 54.6709 22.2089 57.1382C18.5131 61.5679 15.2467 66.1658 12.4097 70.8758C11.2059 72.9224 10.0888 74.9691 9.10026 77.0717C8.41263 78.5301 7.81088 79.9876 7.38104 81.446C6.39254 83.0716 5.44684 84.6981 4.54436 86.3516C2.86809 89.4085 1.40666 92.4924 0.0743472 95.6044C-0.183585 96.2206 0.246249 96.8938 1.10578 97.23C1.62165 97.426 2.2234 97.482 2.78206 97.37C3.29793 97.286 3.85659 97.0339 4.11452 96.6978C8.28367 91.1741 13.3129 85.9875 18.4701 80.8569C19.8457 80.2397 21.1783 79.6235 22.5109 78.9503C26.4643 76.9877 30.1601 74.829 33.7285 72.5863C39.401 68.9972 44.7314 65.2126 50.1892 61.4838C48.5131 65.1005 46.7511 68.6891 45.0749 72.3062C44.8602 72.7264 45.0749 73.2026 45.5473 73.5116C45.7634 73.6516 46.064 73.7637 46.3646 73.8197C46.7081 73.8757 47.0517 73.8757 47.3537 73.8197C50.0174 73.5956 52.5109 73.0345 54.917 72.2502C57.3675 71.465 59.6019 70.4557 61.7088 69.3343C64.8464 67.7078 67.6834 65.8574 70.4774 63.9791C70.433 64.736 70.3472 65.521 70.2183 66.278C70.2183 66.3341 70.1754 66.4182 70.1754 66.4742C70.0895 66.6705 70.0895 66.8668 70.1754 67.035C70.3042 67.3154 70.5633 67.5397 70.9497 67.6798C71.5939 67.9322 72.4112 67.8481 72.9265 67.5116C77.9549 64.2875 83.7576 61.652 88.8719 58.5119C88.829 59.353 88.6572 60.2221 88.7001 61.0633C88.7001 61.3997 88.9578 61.7081 89.3886 61.8763C89.9898 62.1006 90.6353 62.0165 91.1077 61.7361C91.3224 61.6239 91.5371 61.5118 91.7518 61.3717C94.7176 59.9137 98.1128 58.8484 101.207 57.5026C101.207 57.6988 101.164 57.8951 101.122 58.1194C101.036 58.568 100.907 59.0165 100.821 59.4932C100.735 59.9978 100.778 60.5025 100.95 61.0072C101.122 61.5959 102.497 61.8482 103.1 61.3717C104.517 60.3342 106.237 59.4372 107.87 58.54C108.686 58.0913 109.461 57.6428 110.234 57.1942C109.976 58.4839 109.804 59.7736 109.547 61.0633C109.418 61.652 109.289 62.2127 109.03 62.8015C108.901 63.1379 109.116 63.5304 109.589 63.6987C110.105 63.8949 110.663 63.8108 111.094 63.5865C118.442 59.3249 125.277 54.699 131.638 49.7926C135.463 46.8488 139.117 43.8489 142.641 40.7369C135.506 50.9982 128.672 61.3436 121.537 71.605C121.194 71.549 120.85 71.465 120.507 71.3809C119.475 71.0719 118.485 70.6797 117.584 70.2316C115.865 69.3343 114.36 68.2686 113.028 67.1471C111.91 66.1658 110.879 65.1565 109.89 64.1192C109.547 63.7547 109.073 63.5024 108.429 63.3903C107.568 63.222 106.753 63.4183 106.064 63.7828C103.4 65.2968 101.164 67.1191 99.1878 69.0253C97.0822 71.0439 95.4061 73.2595 93.9017 75.5022C90.6783 80.4367 88.5713 85.6794 87.4964 90.978C86.7234 94.7352 86.3799 98.5203 86.6805 102.333C86.8093 104.099 87.1099 105.866 87.6266 107.632C88.056 109.146 88.7001 110.632 89.4745 112.09C89.6892 112.51 90.1186 112.819 90.8071 112.959C91.623 113.099 92.4832 112.875 92.9126 112.398C95.6637 109.426 98.3275 106.426 100.95 103.398C103.529 100.37 106.064 97.286 108.472 94.202C113.328 88.0061 117.884 81.6981 122.311 75.3622C122.397 75.2212 122.526 75.0811 122.612 74.9411C123.343 74.9971 124.031 74.9971 124.762 74.9691C128.114 74.829 131.209 73.9318 134.001 72.7544C137.183 71.4089 140.019 69.6984 142.727 67.9602C145.951 65.8855 149.045 63.6706 152.226 61.5679C152.097 62.6333 152.011 63.6987 151.796 64.736C151.71 65.1285 151.581 65.521 151.453 65.9136C151.281 66.4462 151.453 66.9789 152.054 67.3714C152.613 67.7359 153.558 67.9322 154.29 67.7639C157.341 67.035 160.22 66.0537 162.928 64.8481C165.808 63.5865 168.387 62.0726 170.707 60.4465C175.435 57.1942 179.261 53.4093 183 49.6805C176.682 53.3252 170.75 57.2783 164.089 60.6426C162.584 61.3997 161.037 62.1286 159.447 62.7735C158.501 63.1659 157.556 63.5304 156.567 63.8388C156.61 63.5304 156.653 63.25 156.696 62.9417C156.868 61.7642 156.953 60.5866 157.168 59.4091C157.298 58.8484 157.47 58.2876 157.685 57.7549C157.985 57.082 157.513 56.3811 156.61 56.0167C155.664 55.6522 154.547 55.7924 153.773 56.269C150.12 58.4559 146.725 60.8109 143.285 63.1379C140.191 65.2407 137.053 67.3714 133.529 69.1653C131.896 69.9785 130.177 70.7077 128.329 71.2409C127.34 71.493 126.309 71.689 125.277 71.8011C125.105 71.8011 124.934 71.8291 124.719 71.8291C132.67 60.2221 140.235 48.531 148.358 36.9799C149.475 35.3819 150.635 33.7558 151.796 32.1577C161.681 22.401 170.321 12.0276 177.283 1.26159L177.413 1.06533C177.456 0.925186 177.456 0.756936 177.413 0.61679C177.326 0.42053 177.111 0.224271 176.811 0.112135C176.596 0.0280105 176.381 0 176.167 0C175.866 0.112135 175.435 0.252281 175.178 0.532666ZM48.1695 39.2509C47.0946 42.0826 45.6332 44.8582 43.9141 47.5497C40.1324 53.3813 35.2329 58.8764 30.0313 64.2033C25.1317 69.2503 19.9316 74.1839 14.8602 79.2024C14.1717 79.4834 13.5276 79.7635 12.8391 80.0436C13.3129 79.2864 13.7853 78.5301 14.3006 77.7729C14.2576 77.8289 14.2147 77.885 14.2147 77.941C18.2554 71.7171 22.6826 65.6332 26.9367 59.4932C28.743 56.8858 30.548 54.2785 32.2671 51.6711C34.072 49.8487 36.0058 48.0544 38.0269 46.3441C40.9912 43.7648 44.302 41.2976 48.1695 39.2509ZM44 47.4376C44 47.4656 43.957 47.4936 43.957 47.5217C43.957 47.4936 43.957 47.4656 44 47.4376ZM112.641 57.811C112.641 57.8391 112.641 57.8951 112.598 57.9232C112.641 57.8951 112.641 57.8671 112.641 57.811ZM101.164 58.0633C101.164 58.0914 101.164 58.1195 101.122 58.1755C101.164 58.1195 101.164 58.0914 101.164 58.0633ZM74.1732 61.3717C74.1732 61.4277 74.1732 61.4838 74.1302 61.5398C74.1302 61.4838 74.1732 61.4277 74.1732 61.3717ZM107.397 67.4836C108.386 68.4368 109.418 69.3343 110.577 70.2316C111.996 71.3249 113.586 72.2782 115.348 73.1465C116.638 73.7637 118.099 74.2688 119.603 74.6049C119.346 74.9971 119.045 75.3902 118.787 75.7823C114.489 81.8382 110.019 87.866 105.291 93.7819C101.207 98.8844 96.9104 103.931 92.1826 108.809C91.9665 108.024 91.7947 107.267 91.623 106.482C90.6783 101.772 90.893 97.0059 91.8377 92.3234C92.9126 87.1929 94.8894 82.1183 97.941 77.3528C99.7889 74.5769 102.025 71.8851 104.819 69.4463C105.592 68.7451 106.452 68.1003 107.397 67.4836ZM97.8122 77.4928C97.8122 77.5208 97.7693 77.5488 97.7693 77.5769C97.7693 77.5488 97.7693 77.5208 97.8122 77.4928ZM29.0866 49.4001C29.1295 49.344 29.1724 49.2879 29.1724 49.2319C29.1295 49.2879 29.0866 49.344 29.0866 49.4001ZM137.14 42.9518L137.183 42.9237C137.226 42.8957 137.226 42.8957 137.226 42.8676C137.226 42.8957 137.183 42.9237 137.14 42.9518Z" fill="#0B2034"/>
</svg>
