<svg width="154" height="28" viewBox="0 0 154 28" fill="#000" xmlns="http://www.w3.org/2000/svg">
<path d="M11.4541 5.53744C11.4541 6.3194 11.3187 7.04923 11.042 7.72693C10.7654 8.40463 10.3828 8.98966 9.88251 9.48779C9.3822 9.98593 8.78184 10.3798 8.07552 10.6578C7.3751 10.9417 6.59226 11.0807 5.73291 11.0807C4.87357 11.0807 4.09662 10.9417 3.39031 10.6578C2.68399 10.374 2.07774 9.98593 1.57743 9.48779C1.07713 8.98966 0.688656 8.40463 0.412016 7.72693C0.135377 7.04923 0 6.3252 0 5.53744C0 4.74969 0.135377 4.02565 0.412016 3.34795C0.688656 2.67025 1.07713 2.08523 1.57743 1.59288C2.07774 1.09475 2.68399 0.706661 3.39031 0.422838C4.09662 0.139015 4.87945 0 5.73291 0C6.58638 0 7.36921 0.144808 8.07552 0.428631C8.78184 0.712453 9.3822 1.10633 9.88251 1.59868C10.3828 2.09681 10.7713 2.68184 11.042 3.35374C11.3187 4.03144 11.4541 4.75548 11.4541 5.53744ZM8.83481 5.53744C8.83481 5.00455 8.76418 4.518 8.62292 4.08937C8.48165 3.66074 8.28153 3.29582 8.01078 3.00041C7.74591 2.70501 7.42218 2.47331 7.0396 2.31692C6.65701 2.16053 6.22145 2.07944 5.73291 2.07944C5.24438 2.07944 4.79705 2.16053 4.41446 2.31692C4.03188 2.47331 3.70226 2.70501 3.43739 3.00041C3.17253 3.29582 2.9724 3.66074 2.83114 4.08937C2.68988 4.518 2.61925 4.99876 2.61925 5.53744C2.61925 6.07613 2.68988 6.56268 2.83114 6.99131C2.9724 7.41994 3.17253 7.78486 3.43739 8.08026C3.70226 8.37567 4.02599 8.60736 4.41446 8.76376C4.80294 8.92015 5.2385 9.00124 5.73291 9.00124C6.22733 9.00124 6.65701 8.92594 7.0396 8.76376C7.42218 8.60736 7.74591 8.38146 8.01078 8.08026C8.27565 7.78486 8.47577 7.41994 8.62292 6.99131C8.76418 6.56268 8.83481 6.07613 8.83481 5.53744Z" fill="#000"/>
<path d="M24.6563 10.9648H22.6727C22.449 10.9648 22.2724 10.9126 22.1371 10.8142C22.0017 10.7157 21.8957 10.5825 21.8251 10.4261L21.1718 8.5378H16.981L16.3335 10.4261C16.2805 10.5651 16.1805 10.6925 16.0333 10.8026C15.8921 10.9126 15.7096 10.9706 15.4977 10.9706H13.5024L17.7697 0.121582H20.3889L24.6563 10.9648ZM20.595 6.81749L19.5708 3.84603C19.4943 3.65489 19.4119 3.43478 19.3295 3.17992C19.2471 2.92506 19.1588 2.64703 19.0705 2.35162C18.994 2.65282 18.9116 2.93664 18.8292 3.1915C18.7409 3.45216 18.6644 3.67226 18.5878 3.86341L17.5755 6.81749H20.595Z" fill="#000"/>
<path d="M34.0443 2.32262C33.9678 2.44426 33.8913 2.53115 33.8089 2.58907C33.7265 2.64699 33.6206 2.67595 33.4852 2.67595C33.3675 2.67595 33.2439 2.6412 33.1085 2.5659C32.9731 2.4906 32.8259 2.4153 32.6553 2.32262C32.4846 2.23574 32.2903 2.15465 32.0784 2.07935C31.8607 2.00984 31.6134 1.96929 31.3368 1.96929C30.86 1.96929 30.501 2.06776 30.2656 2.27049C30.0301 2.47322 29.9124 2.74546 29.9124 3.08721C29.9124 3.30731 29.983 3.48688 30.1243 3.63168C30.2656 3.77649 30.448 3.89813 30.6835 4.00239C30.913 4.10665 31.172 4.19933 31.4722 4.28621C31.7665 4.3731 32.0667 4.47157 32.3786 4.57583C32.6847 4.68009 32.9849 4.80752 33.2851 4.95233C33.5793 5.09714 33.8442 5.28249 34.0738 5.5026C34.3033 5.72271 34.4917 5.99494 34.6329 6.31931C34.7742 6.63789 34.8448 7.02597 34.8448 7.47777C34.8448 7.9817 34.7565 8.45088 34.58 8.8853C34.4034 9.31973 34.1503 9.70202 33.8148 10.0264C33.4793 10.3508 33.0673 10.6056 32.5729 10.791C32.0843 10.9763 31.5252 11.069 30.8954 11.069C30.554 11.069 30.2008 11.0342 29.8477 10.9647C29.4945 10.8952 29.1472 10.7968 28.8176 10.6693C28.4821 10.5419 28.1702 10.3913 27.8818 10.2175C27.5875 10.0438 27.3344 9.85262 27.1166 9.6383L27.8759 8.46247C27.9347 8.37558 28.0171 8.30607 28.1172 8.24815C28.2173 8.19023 28.3232 8.16127 28.4409 8.16127C28.594 8.16127 28.747 8.2076 28.9 8.30028C29.0531 8.39296 29.2296 8.49722 29.4239 8.61307C29.6181 8.72891 29.8418 8.83317 30.0949 8.92585C30.348 9.01853 30.6423 9.06487 30.9895 9.06487C31.4545 9.06487 31.8136 8.9664 32.0725 8.76367C32.3315 8.56094 32.461 8.24236 32.461 7.80793C32.461 7.55307 32.3904 7.35034 32.2491 7.18816C32.1079 7.03177 31.9254 6.89854 31.69 6.79428C31.4604 6.69002 31.2014 6.59734 30.9071 6.51625C30.6128 6.43516 30.3126 6.34827 30.0066 6.2498C29.7005 6.15134 29.4003 6.03549 29.106 5.89068C28.8117 5.74587 28.5527 5.56052 28.3232 5.33462C28.0936 5.10872 27.9053 4.81331 27.7699 4.47157C27.6287 4.12403 27.558 3.70119 27.558 3.19726C27.558 2.7918 27.6404 2.39213 27.8052 2.00405C27.97 1.61596 28.2173 1.27422 28.541 0.967224C28.8647 0.666024 29.2591 0.422747 29.7299 0.243186C30.2008 0.0636241 30.7364 -0.0290527 31.3427 -0.0290527C31.6782 -0.0290527 32.0078 -0.00588352 32.3315 0.0462472C32.6494 0.098378 32.9554 0.173678 33.2439 0.277939C33.5323 0.382201 33.7971 0.503839 34.0502 0.642855C34.3033 0.78187 34.5211 0.944054 34.7212 1.12362L34.0855 2.29366L34.0443 2.32262Z" fill="#000"/>
<path d="M41.1604 10.9648H38.5883V0.121582H41.1604V10.9648Z" fill="#000"/>
<path d="M51.6139 2.32262C51.5374 2.44426 51.4609 2.53115 51.3785 2.58907C51.2961 2.64699 51.1901 2.67595 51.0547 2.67595C50.937 2.67595 50.8134 2.6412 50.678 2.5659C50.5426 2.4906 50.3955 2.4153 50.2248 2.32262C50.0541 2.23574 49.8599 2.15465 49.648 2.07935C49.4302 2.00984 49.183 1.96929 48.9064 1.96929C48.4296 1.96929 48.0705 2.06776 47.8351 2.27049C47.5997 2.47322 47.482 2.74546 47.482 3.08721C47.482 3.30731 47.5526 3.48688 47.6938 3.63168C47.8351 3.77649 48.0176 3.89813 48.253 4.00239C48.4826 4.10665 48.7415 4.19933 49.0417 4.28621C49.336 4.3731 49.6362 4.47157 49.9482 4.57583C50.2542 4.68009 50.5544 4.80752 50.8546 4.95233C51.1489 5.09714 51.4138 5.28249 51.6433 5.5026C51.8729 5.72271 52.0612 5.99494 52.2025 6.31931C52.3438 6.63789 52.4144 7.02597 52.4144 7.47777C52.4144 7.9817 52.3261 8.45088 52.1495 8.8853C51.9729 9.31973 51.7198 9.70202 51.3843 10.0264C51.0488 10.3508 50.6368 10.6056 50.1424 10.791C49.6539 10.9763 49.0947 11.069 48.4649 11.069C48.1235 11.069 47.7704 11.0342 47.4172 10.9647C47.064 10.8952 46.7168 10.7968 46.3872 10.6693C46.0517 10.5419 45.7397 10.3913 45.4513 10.2175C45.157 10.0438 44.9039 9.85262 44.6861 9.6383L45.4454 8.46247C45.5043 8.37558 45.5867 8.30607 45.6867 8.24815C45.7868 8.19023 45.8927 8.16127 46.0105 8.16127C46.1635 8.16127 46.3165 8.2076 46.4696 8.30028C46.6226 8.39296 46.7992 8.49722 46.9934 8.61307C47.1877 8.72891 47.4113 8.83317 47.6644 8.92585C47.9175 9.01853 48.2118 9.06487 48.5591 9.06487C49.0241 9.06487 49.3831 8.9664 49.6421 8.76367C49.9011 8.56094 50.0306 8.24236 50.0306 7.80793C50.0306 7.55307 49.9599 7.35034 49.8187 7.18816C49.6774 7.03177 49.495 6.89854 49.2595 6.79428C49.03 6.69002 48.771 6.59734 48.4767 6.51625C48.1824 6.43516 47.8822 6.34827 47.5761 6.2498C47.2701 6.15134 46.9699 6.03549 46.6756 5.89068C46.3813 5.74587 46.1223 5.56052 45.8927 5.33462C45.6632 5.10872 45.4748 4.81331 45.3395 4.47157C45.1982 4.12403 45.1276 3.70119 45.1276 3.19726C45.1276 2.7918 45.21 2.39213 45.3748 2.00405C45.5396 1.61596 45.7868 1.27422 46.1105 0.967224C46.4343 0.666024 46.8286 0.422747 47.2995 0.243186C47.7704 0.0636241 48.306 -0.0290527 48.9122 -0.0290527C49.2477 -0.0290527 49.5774 -0.00588352 49.9011 0.0462472C50.2189 0.098378 50.525 0.173678 50.8134 0.277939C51.1018 0.382201 51.3667 0.503839 51.6198 0.642855C51.8729 0.78187 52.0907 0.944054 52.2908 1.12362L51.6551 2.29366L51.6139 2.32262Z" fill="#000"/>
<path d="M71.5614 0.121582V10.9648H70.2311C70.0369 10.9648 69.8662 10.9358 69.7367 10.8721C69.6013 10.8084 69.4719 10.7041 69.3424 10.5477L64.1451 4.07773C64.1627 4.26887 64.1804 4.46002 64.1863 4.63958C64.1922 4.81914 64.198 4.99291 64.198 5.1493V10.9648H61.9437V0.121582H63.2916C63.4034 0.121582 63.4976 0.121582 63.5741 0.138959C63.6507 0.150544 63.7154 0.16792 63.7801 0.196882C63.839 0.225844 63.8979 0.260597 63.9567 0.312728C64.0097 0.364859 64.0744 0.428574 64.1451 0.515459L69.3895 7.0318C69.3659 6.82328 69.3483 6.62055 69.3365 6.42361C69.3247 6.22667 69.3188 6.04132 69.3188 5.86755V0.121582H71.5731H71.5614Z" fill="#000"/>
<path d="M85.7877 10.9648H83.8042C83.5805 10.9648 83.4039 10.9126 83.2685 10.8142C83.1332 10.7157 83.0272 10.5825 82.9566 10.4261L82.3032 8.5378H78.1124L77.465 10.4261C77.412 10.5651 77.312 10.6925 77.1648 10.8026C77.0235 10.9126 76.8411 10.9706 76.6292 10.9706H74.6339L78.9012 0.121582H81.5204L85.7877 10.9648ZM81.7264 6.81749L80.7023 3.84603C80.6257 3.65489 80.5433 3.43478 80.4609 3.17992C80.3785 2.92506 80.2902 2.64703 80.202 2.35162C80.1254 2.65282 80.043 2.93664 79.9606 3.1915C79.8723 3.45216 79.7958 3.67226 79.7193 3.86341L78.7069 6.81749H81.7264Z" fill="#000"/>
<path d="M95.629 2.11413H92.5271V10.9648H89.9726V2.11413H86.8707V0.121582H95.629V2.11413Z" fill="#000"/>
<path d="M101.491 10.9648H98.9193V0.121582H101.491V10.9648Z" fill="#000"/>
<path d="M116.695 5.53744C116.695 6.3194 116.559 7.04923 116.283 7.72693C116.006 8.40463 115.624 8.98966 115.123 9.48779C114.623 9.98593 114.023 10.3798 113.316 10.6578C112.616 10.9417 111.833 11.0807 110.974 11.0807C110.114 11.0807 109.337 10.9417 108.631 10.6578C107.925 10.374 107.319 9.98593 106.818 9.48779C106.318 8.98966 105.929 8.40463 105.653 7.72693C105.376 7.04923 105.241 6.3252 105.241 5.53744C105.241 4.74969 105.376 4.02565 105.653 3.34795C105.929 2.67025 106.318 2.08523 106.818 1.59288C107.319 1.09475 107.925 0.706661 108.631 0.422838C109.337 0.139015 110.12 0 110.974 0C111.827 0 112.61 0.144808 113.316 0.428631C114.023 0.712453 114.623 1.10633 115.123 1.59868C115.624 2.09681 116.012 2.68184 116.283 3.35374C116.559 4.03144 116.695 4.75548 116.695 5.53744ZM114.076 5.53744C114.076 5.00455 114.005 4.518 113.864 4.08937C113.722 3.66074 113.522 3.29582 113.252 3.00041C112.987 2.70501 112.663 2.47331 112.28 2.31692C111.898 2.16053 111.462 2.07944 110.974 2.07944C110.485 2.07944 110.038 2.16053 109.655 2.31692C109.273 2.47331 108.943 2.70501 108.678 3.00041C108.413 3.29582 108.213 3.66074 108.072 4.08937C107.931 4.518 107.86 4.99876 107.86 5.53744C107.86 6.07613 107.931 6.56268 108.072 6.99131C108.213 7.41994 108.413 7.78486 108.678 8.08026C108.943 8.37567 109.267 8.60736 109.655 8.76376C110.044 8.92015 110.479 9.00124 110.974 9.00124C111.468 9.00124 111.898 8.92594 112.28 8.76376C112.663 8.60736 112.987 8.38146 113.252 8.08026C113.516 7.78486 113.717 7.41994 113.864 6.99131C114.005 6.56268 114.076 6.07613 114.076 5.53744Z" fill="#000"/>
<path d="M130.05 0.121582V10.9648H128.72C128.526 10.9648 128.355 10.9358 128.225 10.8721C128.09 10.8084 127.961 10.7041 127.831 10.5477L122.634 4.07773C122.651 4.26887 122.669 4.46002 122.675 4.63958C122.681 4.81914 122.687 4.99291 122.687 5.1493V10.9648H120.432V0.121582H121.78C121.892 0.121582 121.986 0.121582 122.063 0.138959C122.139 0.150544 122.204 0.16792 122.269 0.196882C122.328 0.225844 122.387 0.260597 122.445 0.312728C122.498 0.364859 122.563 0.428574 122.634 0.515459L127.878 7.0318C127.855 6.82328 127.837 6.62055 127.825 6.42361C127.813 6.22667 127.808 6.04132 127.808 5.86755V0.121582H130.062H130.05Z" fill="#000"/>
<path d="M144.276 10.9648H142.293C142.069 10.9648 141.893 10.9126 141.757 10.8142C141.622 10.7157 141.516 10.5825 141.445 10.4261L140.792 8.5378H136.601L135.954 10.4261C135.901 10.5651 135.801 10.6925 135.653 10.8026C135.512 10.9126 135.33 10.9706 135.118 10.9706H133.123L137.39 0.121582H140.009L144.276 10.9648ZM140.215 6.81749L139.191 3.84603C139.114 3.65489 139.032 3.43478 138.95 3.17992C138.867 2.92506 138.779 2.64703 138.691 2.35162C138.614 2.65282 138.532 2.93664 138.449 3.1915C138.361 3.45216 138.285 3.67226 138.208 3.86341L137.196 6.81749H140.215Z" fill="#000"/>
<path d="M154 8.95485V10.9648H147.361V0.121582H149.915V8.95485H154Z" fill="#000"/>
<path d="M3.11366 16.0387V21.6341H9.07612V22.0453H3.11366V27.8492H2.62512V15.6274H9.95313V16.0387H3.11366Z" fill="#000"/>
<path d="M29.418 21.7384C29.418 22.6942 29.2767 23.5572 28.9942 24.3218C28.7117 25.0864 28.3114 25.7467 27.7993 26.2854C27.2873 26.8241 26.6751 27.2411 25.9629 27.5307C25.2507 27.8203 24.462 27.9651 23.5968 27.9651C22.7315 27.9651 21.9605 27.8203 21.2483 27.5307C20.5361 27.2411 19.9239 26.8241 19.4119 26.2854C18.8998 25.7467 18.5054 25.0864 18.2229 24.3218C17.9404 23.5514 17.7991 22.6942 17.7991 21.7384C17.7991 20.7827 17.9404 19.9312 18.2229 19.1551C18.5054 18.3847 18.8998 17.7301 19.4119 17.1857C19.9239 16.647 20.5361 16.2241 21.2483 15.9287C21.9605 15.6333 22.7433 15.4885 23.5968 15.4885C24.4502 15.4885 25.2507 15.6333 25.9629 15.9287C26.6751 16.2241 27.2873 16.6354 27.7993 17.1799C28.3114 17.7186 28.7058 18.3789 28.9942 19.1493C29.2767 19.9196 29.418 20.7827 29.418 21.7384ZM28.9059 21.7384C28.9059 20.829 28.7764 20.0123 28.5233 19.2941C28.2702 18.57 27.9053 17.9618 27.4403 17.4579C26.9753 16.954 26.4102 16.5717 25.7628 16.3052C25.1153 16.0388 24.3914 15.9056 23.6026 15.9056C22.8139 15.9056 22.1135 16.0388 21.4602 16.3052C20.8127 16.5717 20.2535 16.954 19.7827 17.4579C19.3177 17.9618 18.9469 18.5758 18.6879 19.2941C18.4289 20.0123 18.2935 20.829 18.2935 21.7384C18.2935 22.6478 18.423 23.4645 18.6879 24.1828C18.9527 24.901 19.3177 25.515 19.7827 26.0131C20.2477 26.5113 20.8127 26.8936 21.4602 27.16C22.1135 27.4265 22.8257 27.5597 23.6026 27.5597C24.3796 27.5597 25.1095 27.4265 25.7628 27.16C26.4161 26.8936 26.9753 26.5113 27.4403 26.0131C27.9053 25.515 28.2702 24.9068 28.5233 24.1828C28.7823 23.4587 28.9059 22.6478 28.9059 21.7384Z" fill="#000"/>
<path d="M49.5656 21.7384C49.5656 22.6942 49.4243 23.5572 49.1418 24.3218C48.8593 25.0864 48.459 25.7467 47.9469 26.2854C47.4349 26.8241 46.8227 27.2411 46.1105 27.5307C45.3983 27.8203 44.6096 27.9651 43.7444 27.9651C42.8791 27.9651 42.1081 27.8203 41.3959 27.5307C40.6837 27.2411 40.0715 26.8241 39.5595 26.2854C39.0474 25.7467 38.653 25.0864 38.3705 24.3218C38.088 23.5514 37.9467 22.6942 37.9467 21.7384C37.9467 20.7827 38.088 19.9312 38.3705 19.1551C38.653 18.3847 39.0474 17.7301 39.5595 17.1857C40.0715 16.647 40.6837 16.2241 41.3959 15.9287C42.1081 15.6333 42.8909 15.4885 43.7444 15.4885C44.5978 15.4885 45.3983 15.6333 46.1105 15.9287C46.8227 16.2241 47.4349 16.6354 47.9469 17.1799C48.459 17.7186 48.8534 18.3789 49.1418 19.1493C49.4243 19.9196 49.5656 20.7827 49.5656 21.7384ZM49.0535 21.7384C49.0535 20.829 48.924 20.0123 48.6709 19.2941C48.4178 18.57 48.0529 17.9618 47.5879 17.4579C47.1229 16.954 46.5579 16.5717 45.9104 16.3052C45.263 16.0388 44.539 15.9056 43.7503 15.9056C42.9615 15.9056 42.2611 16.0388 41.6078 16.3052C40.9603 16.5717 40.4012 16.954 39.9303 17.4579C39.4653 17.9618 39.0945 18.5758 38.8355 19.2941C38.5765 20.0123 38.4411 20.829 38.4411 21.7384C38.4411 22.6478 38.5706 23.4645 38.8355 24.1828C39.1004 24.901 39.4653 25.515 39.9303 26.0131C40.3953 26.5113 40.9603 26.8936 41.6078 27.16C42.2611 27.4265 42.9733 27.5597 43.7503 27.5597C44.5272 27.5597 45.2571 27.4265 45.9104 27.16C46.5637 26.8936 47.1229 26.5113 47.5879 26.0131C48.0529 25.515 48.4178 24.9068 48.6709 24.1828C48.9299 23.4587 49.0535 22.6478 49.0535 21.7384Z" fill="#000"/>
<path d="M69.1128 21.7383C69.1128 22.6941 68.9715 23.5513 68.689 24.3043C68.4065 25.0573 68.0121 25.7003 67.5001 26.2216C66.988 26.7487 66.3758 27.1483 65.6636 27.4264C64.9514 27.7044 64.1686 27.8434 63.3093 27.8434H58.83V15.6274H63.3093C64.1686 15.6274 64.9514 15.7665 65.6636 16.0445C66.3758 16.3225 66.988 16.7222 67.5001 17.2493C68.0121 17.7764 68.4065 18.4135 68.689 19.1723C68.9715 19.9253 69.1128 20.7826 69.1128 21.7383ZM68.6007 21.7383C68.6007 20.8289 68.4712 20.018 68.2181 19.3113C67.9592 18.6047 67.6001 18.0023 67.1292 17.5157C66.6584 17.0292 66.0992 16.6585 65.4517 16.4036C64.7984 16.1487 64.0862 16.0213 63.3034 16.0213H59.3127V27.4553H63.3034C64.0862 27.4553 64.8043 27.3279 65.4517 27.073C66.0992 26.8182 66.6584 26.4475 67.1292 25.9609C67.6001 25.4744 67.9592 24.8778 68.2181 24.1653C68.4712 23.4586 68.6007 22.6477 68.6007 21.7383Z" fill="#000"/>
<path d="M83.9807 16.896C83.9454 16.9539 83.8983 16.9829 83.8336 16.9829C83.7688 16.9829 83.6805 16.925 83.5628 16.8149C83.4451 16.7049 83.2862 16.5774 83.0802 16.4384C82.8741 16.2994 82.6093 16.172 82.2856 16.0619C81.9618 15.9519 81.5616 15.8939 81.0848 15.8939C80.6081 15.8939 80.1725 15.9635 79.8017 16.1083C79.4309 16.2531 79.113 16.4442 78.8599 16.6875C78.6068 16.9308 78.4126 17.2088 78.2831 17.5274C78.1536 17.846 78.0889 18.1761 78.0889 18.5236C78.0889 18.9697 78.1831 19.3404 78.3596 19.6416C78.5421 19.9428 78.7834 20.1918 79.0836 20.3946C79.3838 20.5973 79.7252 20.7653 80.1019 20.9043C80.4786 21.0433 80.8729 21.1765 81.2732 21.3097C81.6734 21.443 82.0619 21.5762 82.4445 21.7268C82.8271 21.8716 83.1626 22.0627 83.4627 22.2886C83.7629 22.5145 84.0043 22.7926 84.1867 23.1285C84.3692 23.4645 84.4575 23.8757 84.4575 24.3681C84.4575 24.8604 84.3692 25.347 84.1985 25.7872C84.0278 26.2274 83.7688 26.6155 83.4392 26.9457C83.1037 27.27 82.7035 27.5307 82.2208 27.716C81.7441 27.9014 81.1967 27.9999 80.5845 27.9999C80.1666 27.9999 79.7899 27.9651 79.4485 27.8898C79.1071 27.8145 78.8011 27.716 78.5127 27.577C78.2243 27.438 77.9653 27.2758 77.7298 27.0789C77.4944 26.8819 77.2648 26.656 77.0471 26.407L77.1589 26.2332C77.1883 26.2042 77.2119 26.1811 77.2354 26.1695C77.259 26.1579 77.2884 26.1463 77.3296 26.1463C77.3708 26.1463 77.4296 26.1811 77.5003 26.2564C77.5709 26.3317 77.671 26.4186 77.7887 26.5228C77.9064 26.6329 78.0477 26.7487 78.2125 26.8704C78.3773 26.992 78.5715 27.1136 78.8011 27.2179C79.0247 27.328 79.2896 27.4148 79.5839 27.4843C79.8782 27.5539 80.2196 27.5944 80.5963 27.5944C81.1319 27.5944 81.6146 27.5133 82.0384 27.3453C82.4621 27.1831 82.8212 26.9572 83.1096 26.6676C83.398 26.378 83.6217 26.0479 83.7747 25.6656C83.9277 25.2833 84.0043 24.8778 84.0043 24.4434C84.0043 23.98 83.916 23.5977 83.7335 23.2965C83.551 22.9953 83.3097 22.7404 83.0154 22.5435C82.7211 22.3408 82.3797 22.1728 81.9971 22.0338C81.6146 21.9006 81.2261 21.7673 80.8258 21.6457C80.4256 21.5241 80.0371 21.385 79.6545 21.2344C79.272 21.0896 78.9306 20.8985 78.6363 20.6726C78.342 20.4409 78.1006 20.1571 77.9182 19.8211C77.7357 19.4852 77.6474 19.0565 77.6474 18.5468C77.6474 18.1472 77.7239 17.7649 77.877 17.3999C78.03 17.035 78.2537 16.7107 78.5421 16.4326C78.8305 16.1546 79.1895 15.9287 79.6192 15.7607C80.043 15.5927 80.5374 15.5059 81.0907 15.5059C81.7146 15.5059 82.2679 15.6043 82.7447 15.8013C83.2273 15.9982 83.6746 16.3052 84.0925 16.7222L83.9866 16.9134L83.9807 16.896Z" fill="#000"/>
<path d="M101.774 16.0445H97.23V27.8434H96.7414V16.0445H92.1681V15.6274H101.774V16.0445Z" fill="#000"/>
<path d="M114.77 27.5654C115.412 27.5654 115.983 27.4553 116.489 27.2294C116.989 27.0093 117.419 26.7023 117.766 26.3142C118.113 25.9262 118.384 25.4686 118.572 24.9473C118.755 24.426 118.849 23.8583 118.849 23.2559V15.6274H119.344V23.2559C119.344 23.9162 119.238 24.536 119.026 25.1094C118.814 25.6887 118.508 26.1868 118.113 26.6154C117.719 27.0441 117.236 27.38 116.671 27.6291C116.106 27.8782 115.476 27.9998 114.77 27.9998C114.064 27.9998 113.428 27.8782 112.863 27.6291C112.298 27.3858 111.815 27.0441 111.421 26.6154C111.027 26.1868 110.721 25.6829 110.515 25.1094C110.303 24.5302 110.197 23.9162 110.197 23.2559V15.6274H110.685V23.2385C110.685 23.8409 110.779 24.4086 110.962 24.9299C111.15 25.457 111.415 25.9146 111.768 26.3085C112.121 26.7023 112.545 27.0093 113.051 27.2294C113.558 27.4495 114.129 27.5654 114.77 27.5654Z" fill="#000"/>
<path d="M129.715 16.0387V21.6341H135.671V22.0453H129.715V27.8492H129.226V15.6274H136.554V16.0387H129.715Z" fill="#000"/>
<path d="M145.742 16.0387V21.6341H151.699V22.0453H145.742V27.8492H145.253V15.6274H152.581V16.0387H145.742Z" fill="#000"/>
</svg>
