<svg width="64" height="65" viewBox="0 0 64 65" fill="none" xmlns="http://www.w3.org/2000/svg">
<rect y="0.5" width="64" height="64" rx="32" fill="#DABE96"/>
<path d="M32 22.5C30.1441 22.5021 28.3649 23.2403 27.0526 24.5526C25.7403 25.8649 25.0021 27.6441 25 29.5C25 34.853 31.036 40.95 31.293 41.207L32 41.914L32.707 41.207C32.964 40.95 39 34.853 39 29.5C38.9979 27.6441 38.2597 25.8649 36.9474 24.5526C35.6351 23.2403 33.8559 22.5021 32 22.5ZM32 39.033C30.471 37.325 27 33.053 27 29.5C27 28.1739 27.5268 26.9021 28.4645 25.9645C29.4021 25.0268 30.6739 24.5 32 24.5C33.3261 24.5 34.5979 25.0268 35.5355 25.9645C36.4732 26.9021 37 28.1739 37 29.5C37 33.046 33.527 37.323 32 39.033Z" fill="white"/>
<path d="M32 26.5C31.4067 26.5 30.8266 26.6759 30.3333 27.0056C29.8399 27.3352 29.4554 27.8038 29.2284 28.3519C29.0013 28.9001 28.9419 29.5033 29.0576 30.0853C29.1734 30.6672 29.4591 31.2018 29.8787 31.6213C30.2982 32.0409 30.8328 32.3266 31.4147 32.4424C31.9967 32.5581 32.5999 32.4987 33.1481 32.2716C33.6962 32.0446 34.1648 31.6601 34.4944 31.1667C34.8241 30.6734 35 30.0933 35 29.5C35 28.7044 34.6839 27.9413 34.1213 27.3787C33.5587 26.8161 32.7957 26.5 32 26.5ZM32 30.5C31.8022 30.5 31.6089 30.4414 31.4444 30.3315C31.28 30.2216 31.1518 30.0654 31.0761 29.8827C31.0004 29.7 30.9806 29.4989 31.0192 29.3049C31.0578 29.1109 31.153 28.9327 31.2929 28.7929C31.4327 28.653 31.6109 28.5578 31.8049 28.5192C31.9989 28.4806 32.2 28.5004 32.3827 28.5761C32.5654 28.6518 32.7216 28.78 32.8315 28.9444C32.9414 29.1089 33 29.3022 33 29.5C33 29.7652 32.8946 30.0196 32.7071 30.2071C32.5196 30.3946 32.2652 30.5 32 30.5Z" fill="white"/>
</svg>
