<svg width="60" height="60" viewBox="0 0 60 60" fill="none" xmlns="http://www.w3.org/2000/svg">
<rect x="0.986816" y="0.425049" width="59" height="59" rx="29.5" fill="#0A1937"/>
<path d="M38.5547 32.6872L38.5247 32.0325L33.3923 31.2994L32.3512 33.3371C31.2521 32.7183 30.2473 31.9452 29.3674 31.0413C28.4535 30.1629 27.6748 29.1539 27.0566 28.0472L29.2732 26.9389L27.0566 21.7772L26.4549 21.8643C25.4359 22.0047 24.4919 22.4778 23.7696 23.2101C21.2576 25.7189 22.2417 30.6376 26.0084 34.4035C28.3692 36.7635 31.1804 38.0309 33.5696 38.0301C34.2374 38.0534 34.9031 37.9426 35.5274 37.7042C36.1517 37.4659 36.7218 37.1048 37.2042 36.6423C37.6969 36.1166 38.0721 35.492 38.305 34.8101C38.5378 34.1282 38.623 33.4045 38.5547 32.6872ZM36.0847 35.5229C34.2639 37.3438 30.1623 36.3146 27.1278 33.2841C24.0934 30.2536 23.0682 26.148 24.889 24.3272C25.2284 23.9832 25.6438 23.7237 26.1018 23.5696L27.226 26.1923L26.3496 26.6301C26.1598 26.7252 25.9909 26.8573 25.8529 27.0187C25.7149 27.18 25.6106 27.3674 25.5461 27.5697C25.4816 27.772 25.4583 27.9851 25.4774 28.1966C25.4966 28.408 25.5579 28.6135 25.6577 28.8009C26.3507 30.0424 27.2221 31.1754 28.2441 32.1639C29.2328 33.1744 30.3613 34.0379 31.5952 34.7281C31.7854 34.8313 31.9943 34.8955 32.2097 34.9169C32.425 34.9382 32.6424 34.9163 32.8492 34.8524C33.0514 34.7895 33.2387 34.6861 33.3999 34.5487C33.561 34.4113 33.6925 34.2426 33.7865 34.0528L34.2987 33.0284L36.9643 33.4092C36.9339 34.1964 36.6218 34.9465 36.0847 35.5229Z" fill="white"/>
</svg>
