<svg width="65" height="66" viewBox="0 0 65 66" fill="none" xmlns="http://www.w3.org/2000/svg">
<rect y="0.5" width="65" height="65" rx="32.5" fill="#DABE96"/>
<path d="M43.6661 29.9217H40.9062V22.2448C40.9062 21.2727 40.3082 20.5 39.5722 20.5H25.3588C24.6228 20.5 24.0478 21.2727 24.0478 22.2448V29.9217H21.3109C20.575 29.9217 20 30.6944 20 31.6665V43.7552C20 44.7273 20.598 45.5 21.3109 45.5H43.6891C44.425 45.5 45 44.7273 45 43.7552V31.6665C45 30.6944 44.402 29.9217 43.6891 29.9217H43.6661ZM25.7498 22.5189H39.1582V29.9217H25.7498V22.5189ZM43.2291 42.9576H21.7019V32.2647H43.2291V42.9826V42.9576ZM37.1803 37.6735C37.1803 38.3465 36.7663 38.9197 36.2374 38.9197H28.6937C28.1647 38.9197 27.7507 38.3714 27.7507 37.6735C27.7507 36.9756 28.1647 36.4272 28.6937 36.4272H36.2374C36.7663 36.4272 37.1803 36.9756 37.1803 37.6735Z" fill="white"/>
</svg>
