<svg width="15" height="16" viewBox="0 0 15 16" fill="none" xmlns="http://www.w3.org/2000/svg">
<path d="M0.241148 5.30472H3.36012V15.9828H0.241148V5.30472ZM1.80063 0C2.79742 0 3.60127 0.858369 3.60127 1.92275C3.60127 2.98712 2.79742 3.84549 1.80063 3.84549C0.803851 3.84549 0 2.98712 0 1.92275C0 0.858369 0.803851 0 1.80063 0ZM5.30547 16H8.40835V10.7124C8.40835 9.32189 8.64952 7.96566 10.2733 7.96566C11.8971 7.96566 11.8971 9.56223 11.8971 10.7983V16H15V10.1459C15 7.2618 14.4212 5.04721 11.2701 5.04721C9.75883 5.04721 8.74597 5.93991 8.32796 6.78112H8.27973V5.32189H5.30547V16Z" fill="#0A1938"/>
</svg>
