<svg width="11" height="11" viewBox="0 0 11 11" fill="none" xmlns="http://www.w3.org/2000/svg">
<path d="M10.5107 7.54801L9.2332 6.27026C8.61508 5.65199 7.54367 5.65199 6.92555 6.27026L6.80192 6.39391L4.59728 4.18876L4.72091 4.06511C5.35964 3.42623 5.35964 2.38548 4.72091 1.75691L3.44346 0.479157C2.80473 -0.159719 1.77453 -0.159719 1.1358 0.479157C-0.3786 1.99391 -0.3786 4.46698 1.1358 5.98173L5.01967 9.86651C5.78202 10.629 6.77102 11 7.77031 11C8.76961 11 9.7586 10.6187 10.521 9.86651C11.1597 9.22763 11.1597 8.18689 10.521 7.55831L10.5107 7.54801ZM9.93374 9.27916C9.35682 9.85621 8.58417 10.1756 7.76001 10.1756C6.93585 10.1756 6.1735 9.85621 5.59658 9.27916L1.71272 5.39438C1.1358 4.81733 0.816439 4.0445 0.816439 3.22014C0.816439 2.39578 1.1358 1.62295 1.71272 1.0459C1.86725 0.891335 2.07329 0.808899 2.28963 0.808899C2.50597 0.808899 2.71201 0.891335 2.86654 1.0459L4.144 2.32365C4.46336 2.64309 4.46336 3.15831 4.144 3.47775L3.44346 4.17845L6.80192 7.5377L7.50246 6.837C7.64669 6.69274 7.85273 6.6103 8.07938 6.6103C8.30602 6.6103 8.51206 6.69274 8.65629 6.837L9.93374 8.11475C10.0883 8.26932 10.1707 8.47541 10.1707 8.6918C10.1707 8.9082 10.0883 9.11429 9.93374 9.26885V9.27916Z" fill="#ECE1D1"/>
</svg>
