<svg width="15" height="14" viewBox="0 0 15 14" fill="none" xmlns="http://www.w3.org/2000/svg">
<path fill-rule="evenodd" clip-rule="evenodd" d="M10.2072 9.01147H9.60124L9.38647 8.80437C10.1382 7.92994 10.5907 6.79471 10.5907 5.55977C10.5907 2.80608 8.35863 0.573975 5.60494 0.573975C2.85124 0.573975 0.619141 2.80608 0.619141 5.55977C0.619141 8.31346 2.85124 10.5456 5.60494 10.5456C6.83988 10.5456 7.97511 10.093 8.84954 9.3413L9.05664 9.55608V10.162L12.8919 13.9896L14.0348 12.8467L10.2072 9.01147ZM5.60511 9.01136C3.69517 9.01136 2.15341 7.4696 2.15341 5.55966C2.15341 3.64972 3.69517 2.10795 5.60511 2.10795C7.51506 2.10795 9.05682 3.64972 9.05682 5.55966C9.05682 7.4696 7.51506 9.01136 5.60511 9.01136Z" fill="#2C3D5B"/>
</svg>
