<svg width="58" height="59" viewBox="0 0 58 59" fill="none" xmlns="http://www.w3.org/2000/svg">
<rect y="0.500854" width="58" height="58" rx="29" fill="#0A1937"/>
<path d="M33.2067 37.4723C31.6899 38.2151 30.1528 38.5009 28.3124 38.5009C23.8022 38.5009 20 35.3961 20 30.4247C20 25.0913 23.9236 20.5009 30.0112 20.5009C34.7843 20.5009 38 23.6628 38 27.9675C38 31.8532 35.6944 34.1199 33.1056 34.1199C32.0135 34.1199 30.982 33.4151 31.0831 31.8532H30.982C30.0112 33.377 28.7573 34.1199 27.1191 34.1199C25.4809 34.1199 24.1461 32.9009 24.1461 30.8628C24.1461 27.6628 26.836 24.7294 30.6584 24.7294C31.8315 24.7294 32.8831 24.958 33.591 25.2818L32.6607 29.9675C32.2562 31.9294 32.5798 32.8437 33.4899 32.8628C34.8854 32.8818 36.4629 31.1294 36.4629 28.139C36.4629 24.3866 34.0764 21.7009 29.809 21.7009C25.3393 21.7009 21.5775 25.0342 21.5775 30.2913C21.5775 34.6151 24.5708 37.2818 28.636 37.2818C30.1933 37.2818 31.6494 36.977 32.782 36.3675L33.227 37.4723H33.2067ZM31.6899 26.3104C31.4067 26.2342 30.9416 26.1389 30.3146 26.1389C27.9079 26.1389 25.9461 28.2913 25.9461 30.7866C25.9461 31.9294 26.5528 32.7485 27.7663 32.7485C29.364 32.7485 30.8202 30.8437 31.1236 29.2247L31.7101 26.3104H31.6899Z" fill="white" stroke="white" stroke-width="0.25" stroke-miterlimit="10"/>
</svg>
